<?xml version="1.0" encoding="UTF-8" standalone="no"?>
<svg width="296.926mm" height="209.973mm"
 viewBox="0 0 3507 2480"
 xmlns="http://www.w3.org/2000/svg" xmlns:xlink="http://www.w3.org/1999/xlink"  version="1.2" baseProfile="tiny">
<desc>Generated with Qt</desc>
<defs>
</defs>
<g fill="none" stroke="black" stroke-width="1" fill-rule="evenodd" stroke-linecap="square" stroke-linejoin="bevel" >

<g fill="none" stroke="#000000" stroke-opacity="1" stroke-width="1" stroke-linecap="square" stroke-linejoin="bevel" transform="matrix(1,0,0,1,0,0)"
font-family="MS Shell Dlg 2" font-size="34.375" font-weight="400" font-style="normal" 
>
</g>

<g fill="none" stroke="#000000" stroke-opacity="1" stroke-width="1" stroke-linecap="square" stroke-linejoin="bevel" transform="matrix(11.8081,0,0,11.8081,0,0)"
font-family="MS Shell Dlg 2" font-size="34.375" font-weight="400" font-style="normal" 
>
</g>

<g fill="#ffffff" fill-opacity="1" stroke="none" transform="matrix(0.999751,0,0,0.999751,0,0)"
font-family="MS Shell Dlg 2" font-size="34.375" font-weight="400" font-style="normal" 
>
<path vector-effect="none" fill-rule="evenodd" d="M-1,-1 L3508.87,-1 L3508.87,2481.31 L-1,2481.31 L-1,-1"/>
</g>

<g fill="none" stroke="#000000" stroke-opacity="1" stroke-width="1" stroke-linecap="square" stroke-linejoin="bevel" transform="matrix(11.8081,0,0,11.8081,0,0)"
font-family="MS Shell Dlg 2" font-size="34.375" font-weight="400" font-style="normal" 
>
</g>

<g fill="none" stroke="#000000" stroke-opacity="1" stroke-width="1" stroke-linecap="square" stroke-linejoin="bevel" transform="matrix(11.8081,0,0,11.8081,0,0)"
font-family="MS Shell Dlg 2" font-size="34.375" font-weight="400" font-style="normal" 
>
</g>

<g fill="none" stroke="#000000" stroke-opacity="1" stroke-width="1" stroke-linecap="square" stroke-linejoin="bevel" transform="matrix(11.8081,0,0,11.8081,23.6162,11.8081)"
font-family="MS Shell Dlg 2" font-size="34.375" font-weight="400" font-style="normal" 
>
</g>

<g fill="none" stroke="#000000" stroke-opacity="1" stroke-width="1" stroke-linecap="square" stroke-linejoin="bevel" transform="matrix(11.8081,0,0,11.8081,23.6162,11.8081)"
font-family="MS Shell Dlg 2" font-size="34.375" font-weight="400" font-style="normal" 
>
</g>

<g fill="#ffffff" fill-opacity="1" stroke="none" transform="matrix(11.8081,0,0,11.8081,23.6162,11.8081)"
font-family="MS Shell Dlg 2" font-size="34.375" font-weight="400" font-style="normal" 
>
<path vector-effect="non-scaling-stroke" fill-rule="evenodd" d="M0,0 L291,0 L291,203 L0,203 L0,0"/>
</g>

<g fill="none" stroke="#000000" stroke-opacity="1" stroke-width="1" stroke-linecap="square" stroke-linejoin="bevel" transform="matrix(11.8081,0,0,11.8081,23.6162,11.8081)"
font-family="MS Shell Dlg 2" font-size="34.375" font-weight="400" font-style="normal" 
>
</g>

<g fill="#000000" fill-opacity="0" stroke="none" transform="matrix(0.999751,0,0,0.999751,23.6162,11.8081)"
font-family="MS Shell Dlg 2" font-size="34.375" font-weight="400" font-style="normal" 
>
<path vector-effect="non-scaling-stroke" fill-rule="evenodd" d="M0,0 L3437,0 L3437,2398 L0,2398 L0,0"/>
</g>

<g fill="#c46c8b" fill-opacity="0.301961" stroke="#c41555" stroke-opacity="1" stroke-width="3.07087" stroke-linecap="square" stroke-linejoin="bevel" transform="matrix(0.999751,0,0,0.999751,23.6162,11.8081)"
font-family="MS Shell Dlg 2" font-size="34.375" font-weight="400" font-style="normal" 
>
<path vector-effect="none" fill-rule="evenodd" d="M2013.74,786.327 L2037.16,864.534 L2067.05,904.277 L2150.64,969.785 L2225.86,1046.4 L2557.61,1385.34 L2449.92,1402.59 L2333.7,1421.98 L2262.69,1428.45 L2208.96,1439.18 L2127.17,1449.94 L2021.75,1449.97 L1944.35,1462.9 L1845.39,1488.7 L1699.2,1531.72 L1697.06,1531.72 L1688.48,1531.72 L1679.88,1536.02 L1669.14,1540.32 L1662.7,1544.62 L1654.09,1551.07 L1645.49,1557.52 L1636.89,1563.97 L1628.28,1572.57 L1621.82,1579.02 L1615.36,1585.47 L1606.75,1594.08 L1600.3,1598.38 L1593.85,1609.13 L1587.41,1613.43 L1580.97,1619.88 L1574.53,1628.47 L1568.09,1632.77 L1561.68,1639.21 L1550.99,1647.8 L1542.42,1652.09 L1535.98,1658.54 L1529.5,1662.84 L1523.03,1673.6 L1518.69,1680.06 L1510.09,1686.51 L1505.8,1692.96 L1497.21,1699.4 L1462.82,1729.5 L1428.41,1729.5 L1396.18,1718.74 L1374.83,1697.2 L1348.92,1664.98 L1325.39,1630.57 L1293.37,1598.3 L1261.05,1570.37 L1237.53,1540.28 L1211.73,1503.74 L1195.17,1456.51 L1300.61,1219.87 L1660.19,1165.48 L1687.88,1156.78 L1808.16,858.229 L2013.74,786.327"/>
</g>

<g fill="none" stroke="#75acd9" stroke-opacity="1" stroke-width="9.44882" stroke-linecap="round" stroke-linejoin="round" transform="matrix(0.999751,0,0,0.999751,23.6162,11.8081)"
font-family="MS Shell Dlg 2" font-size="34.375" font-weight="400" font-style="normal" 
>
<path vector-effect="none" fill-rule="evenodd" d="M2594.29,1382.33 L2298.1,971.489"/>
</g>

<g fill="none" stroke="#1d6baa" stroke-opacity="0.501961" stroke-dasharray="10.9146,21.8292" stroke-dashoffset="0" stroke-width="10.9146" stroke-linecap="round" stroke-linejoin="round" transform="matrix(0.999751,0,0,0.999751,23.6162,11.8081)"
font-family="MS Shell Dlg 2" font-size="34.375" font-weight="400" font-style="normal" 
>
<path vector-effect="none" fill-rule="evenodd" d="M2594.29,1382.33 L2298.1,971.489"/>
</g>

<g fill="none" stroke="#75acd9" stroke-opacity="1" stroke-width="9.44882" stroke-linecap="round" stroke-linejoin="round" transform="matrix(0.999751,0,0,0.999751,23.6162,11.8081)"
font-family="MS Shell Dlg 2" font-size="34.375" font-weight="400" font-style="normal" 
>
<path vector-effect="none" fill-rule="evenodd" d="M2559,1393.75 L1946.82,1031.92 L1901.78,1226.81"/>
</g>

<g fill="none" stroke="#1d6baa" stroke-opacity="0.501961" stroke-dasharray="10.9146,21.8292" stroke-dashoffset="0" stroke-width="10.9146" stroke-linecap="round" stroke-linejoin="round" transform="matrix(0.999751,0,0,0.999751,23.6162,11.8081)"
font-family="MS Shell Dlg 2" font-size="34.375" font-weight="400" font-style="normal" 
>
<path vector-effect="none" fill-rule="evenodd" d="M2559,1393.75 L1946.82,1031.92 L1901.78,1226.81"/>
</g>

<g fill="none" stroke="#75acd9" stroke-opacity="1" stroke-width="9.44882" stroke-linecap="round" stroke-linejoin="round" transform="matrix(0.999751,0,0,0.999751,23.6162,11.8081)"
font-family="MS Shell Dlg 2" font-size="34.375" font-weight="400" font-style="normal" 
>
<path vector-effect="none" fill-rule="evenodd" d="M2327.22,1377.55 L1946.82,1031.92 L1901.78,1226.81"/>
</g>

<g fill="none" stroke="#1d6baa" stroke-opacity="0.501961" stroke-dasharray="10.9146,21.8292" stroke-dashoffset="0" stroke-width="10.9146" stroke-linecap="round" stroke-linejoin="round" transform="matrix(0.999751,0,0,0.999751,23.6162,11.8081)"
font-family="MS Shell Dlg 2" font-size="34.375" font-weight="400" font-style="normal" 
>
<path vector-effect="none" fill-rule="evenodd" d="M2327.22,1377.55 L1946.82,1031.92 L1901.78,1226.81"/>
</g>

<g fill="none" stroke="#75acd9" stroke-opacity="1" stroke-width="9.44882" stroke-linecap="round" stroke-linejoin="round" transform="matrix(0.999751,0,0,0.999751,23.6162,11.8081)"
font-family="MS Shell Dlg 2" font-size="34.375" font-weight="400" font-style="normal" 
>
<path vector-effect="none" fill-rule="evenodd" d="M2559,1393.75 L1901.78,1226.81"/>
</g>

<g fill="none" stroke="#1d6baa" stroke-opacity="0.501961" stroke-dasharray="10.9146,21.8292" stroke-dashoffset="0" stroke-width="10.9146" stroke-linecap="round" stroke-linejoin="round" transform="matrix(0.999751,0,0,0.999751,23.6162,11.8081)"
font-family="MS Shell Dlg 2" font-size="34.375" font-weight="400" font-style="normal" 
>
<path vector-effect="none" fill-rule="evenodd" d="M2559,1393.75 L1901.78,1226.81"/>
</g>

<g fill="none" stroke="#75acd9" stroke-opacity="1" stroke-width="9.44882" stroke-linecap="round" stroke-linejoin="round" transform="matrix(0.999751,0,0,0.999751,23.6162,11.8081)"
font-family="MS Shell Dlg 2" font-size="34.375" font-weight="400" font-style="normal" 
>
<path vector-effect="none" fill-rule="evenodd" d="M2328.67,1376 L1901.78,1226.81"/>
</g>

<g fill="none" stroke="#1d6baa" stroke-opacity="0.501961" stroke-dasharray="10.9146,21.8292" stroke-dashoffset="0" stroke-width="10.9146" stroke-linecap="round" stroke-linejoin="round" transform="matrix(0.999751,0,0,0.999751,23.6162,11.8081)"
font-family="MS Shell Dlg 2" font-size="34.375" font-weight="400" font-style="normal" 
>
<path vector-effect="none" fill-rule="evenodd" d="M2328.67,1376 L1901.78,1226.81"/>
</g>

<g fill="#2e5831" fill-opacity="0.596078" stroke="none" transform="matrix(0.999751,0,0,0.999751,23.6162,11.8081)"
font-family="MS Shell Dlg 2" font-size="34.375" font-weight="400" font-style="normal" 
>
<path vector-effect="none" fill-rule="evenodd" d="M2552.26,1379.87 L2557.61,1385.34 L2514.61,1392.23 L2545.89,1381.45 L2547.5,1380.99 L2552.26,1379.87"/>
<path vector-effect="none" fill-rule="evenodd" d="M2485.74,1396.86 L2449.92,1402.59 L2333.7,1421.98 L2262.69,1428.45 L2208.96,1439.18 L2127.17,1449.94 L2021.75,1449.97 L1944.35,1462.9 L1845.39,1488.7 L1760.86,1513.58 L1782.8,1501.9 L1782.89,1501.85 L1807.8,1488.79 L1820.86,1479.79 L1824.87,1477.77 L1845.79,1470.56 L1846.65,1470.28 L1870.1,1463.61 L1870.38,1463.53 L1884.63,1459.75 L1890.53,1459.27 L1892.83,1459.5 L1900.1,1457.46 L1902.29,1457 L1912.29,1455.61 L1915.56,1452.34 L1918.78,1449.83 L1922.51,1448.17 L1938.02,1443.49 L1939.65,1443.08 L1959.12,1439.3 L1978.4,1435.51 L1980.67,1435.23 L2002.6,1434.01 L2023.06,1430.86 L2033.43,1426.25 L2043.87,1420.61 L2049.77,1418.73 L2064.74,1416.92 L2068.6,1416.91 L2081.23,1418.35 L2085.47,1419.42 L2100.44,1425.37 L2100.64,1425.45 L2108.94,1428.88 L2113.12,1431.38 L2117.91,1435.3 L2123.23,1436.41 L2130.29,1435.45 L2135.61,1433.32 L2139.82,1432.25 L2159.87,1429.89 L2160.01,1429.85 L2161.2,1426.42 L2163.46,1422.08 L2166.88,1418.58 L2171.15,1416.22 L2180.35,1412.8 L2184.1,1411.88 L2197.27,1410.25 L2203.02,1410.55 L2204.41,1410.88 L2201.53,1407.9 L2201.33,1407.69 L2196.46,1402.48 L2194.76,1400.35 L2191.23,1395.06 L2182.97,1384.88 L2181.79,1383.24 L2174.85,1372.19 L2174.38,1371.4 L2166.53,1357.26 L2158.98,1347.97 L2148.1,1337.79 L2144.76,1333.45 L2139.78,1324.11 L2132.99,1316.59 L2119.93,1307.88 L2119.88,1307.85 L2101.67,1295.61 L2099.38,1293.76 L2083.83,1278.75 L2069.09,1264.76 L2056.99,1256.27 L2045.2,1250.26 L2030.03,1243.17 L2026.39,1240.84 L2017.74,1233.59 L2008.06,1226.15 L1995.62,1219.82 L1994.08,1218.93 L1985.97,1213.63 L1983.99,1212.11 L1979.48,1208.1 L1977.19,1205.6 L1965.81,1190.32 L1956.3,1180 L1952.49,1173.18 L1949.61,1162.95 L1949.05,1159.98 L1947.61,1144.91 L1947.83,1140.13 L1950.81,1124.6 L1951.03,1123.62 L1954.95,1108.23 L1955.02,1100.68 L1955.23,1098.17 L1956.95,1087.37 L1956.81,1083.35 L1956.32,1081.62 L1951.67,1075.49 L1949.5,1071.67 L1948.39,1067.43 L1948.41,1063.03 L1950.21,1049.79 L1951.72,1044.77 L1954.69,1040.46 L1958.84,1037.29 L1963.76,1035.57 L1968.97,1035.46 L1973.96,1036.97 L1978.24,1039.97 L1981.39,1044.15 L1983.1,1049.1 L1983.21,1054.34 L1982.35,1060.68 L1984.73,1063.81 L1987.52,1069.43 L1989.41,1076.19 L1990.03,1080.15 L1990.3,1087.82 L1990.1,1091.08 L1988.31,1102.25 L1988.24,1110.58 L1987.71,1114.59 L1983.42,1131.45 L1981,1144.1 L1982.06,1155.25 L1983.44,1160.15 L1990.83,1168.16 L1991.94,1169.5 L2002.83,1184.12 L2005.14,1186.18 L2011.46,1190.31 L2014.05,1186.48 L2039.76,1180.44 L2072.84,1196.12 L2125.17,1175.25 L2152.29,1202.95 L2231.28,1200.99 L2255.65,1230.08 L2257.53,1262.9 L2264.89,1271.67 L2298.89,1284.11 L2344.89,1257.93 L2383.02,1272.96 L2414.29,1300.19 L2416.62,1327.46 L2408.38,1348.27 L2405.65,1365.38 L2424.83,1375.4 L2425.93,1374.94 L2429.68,1373.89 L2441.23,1372.09 L2446.33,1372.09 L2451.19,1373.64 L2465.62,1380.86 L2468.74,1382.89 L2485.74,1396.86"/>
<path vector-effect="none" fill-rule="evenodd" d="M1724.03,1524.41 L1699.2,1531.72 L1697.06,1531.72 L1688.48,1531.72 L1679.88,1536.02 L1669.14,1540.32 L1662.7,1544.62 L1654.09,1551.07 L1645.49,1557.52 L1636.89,1563.97 L1628.28,1572.57 L1621.82,1579.02 L1615.36,1585.47 L1606.75,1594.08 L1600.3,1598.38 L1593.85,1609.13 L1587.41,1613.43 L1580.97,1619.88 L1574.53,1628.47 L1568.09,1632.77 L1561.68,1639.21 L1550.99,1647.8 L1542.42,1652.09 L1535.98,1658.54 L1529.5,1662.84 L1523.03,1673.6 L1518.69,1680.06 L1510.09,1686.51 L1505.8,1692.96 L1497.21,1699.4 L1462.82,1729.5 L1428.41,1729.5 L1396.18,1718.74 L1374.83,1697.2 L1348.92,1664.98 L1325.39,1630.57 L1293.37,1598.3 L1261.05,1570.37 L1237.53,1540.28 L1211.73,1503.74 L1200.34,1471.26 L1200.37,1471.27 L1204.82,1475.33 L1219.37,1494.5 L1231.62,1509.14 L1246.97,1524.48 L1248.85,1526.72 L1265.71,1550.81 L1298.11,1583.56 L1315.99,1600.72 L1317.29,1602.12 L1338.21,1627.37 L1338.46,1627.67 L1349.28,1641.38 L1350.17,1642.63 L1364.8,1665.11 L1378.12,1684.08 L1390.98,1696.37 L1412.13,1705.43 L1435.65,1710.93 L1443.5,1710 L1443.5,1710 L1443.5,1710 L1455.46,1708.58 L1459.85,1701.99 L1461.65,1699.73 L1468.87,1692.16 L1473.24,1688.87 L1478.44,1687.18 L1487.68,1685.79 L1498.75,1675.25 L1522.17,1650.8 L1536.61,1630.5 L1538.94,1627.87 L1560.27,1608.32 L1571.79,1596.63 L1549.97,1601.95 L1510.64,1545.14 L1489.27,1533.38 L1469.92,1484.86 L1474.71,1450.88 L1613.8,1408.42 L1674.46,1444.4 L1669.07,1479.83 L1671.5,1473.8 L1691.7,1442.78 L1691.8,1442.62 L1710.56,1414.49 L1710.74,1414.22 L1727.25,1390.45 L1731.4,1376.62 L1724.21,1356.17 L1704.52,1317.48 L1704.33,1317.12 L1679.8,1265.89 L1679.09,1264.15 L1667.57,1230.98 L1660.52,1217.24 L1659.27,1214.02 L1654.6,1197 L1649.25,1185.56 L1640.94,1185.56 L1630.33,1187.74 L1625.76,1188.04 L1621.28,1187.07 L1603.6,1180.57 L1598.66,1177.71 L1595.7,1175.23 L1660.19,1165.48 L1673.08,1161.43 L1677.41,1167.06 L1685.35,1184.01 L1686.33,1186.69 L1690.92,1203.42 L1697.71,1216.66 L1698.63,1218.81 L1710.22,1252.19 L1734.25,1302.37 L1754.36,1341.87 L1755.24,1343.93 L1764.62,1370.62 L1765.57,1375.82 L1764.86,1381.06 L1758.37,1402.7 L1756.08,1407.46 L1738.13,1433.3 L1719.51,1461.23 L1701.17,1489.41 L1696.89,1511.87 L1702.86,1528.2 L1724.03,1524.41"/>
<path vector-effect="none" fill-rule="evenodd" d="M1873.32,1290.14 L1887.13,1316.93 L1926.16,1316.42 L1927.59,1356.64 L1950.62,1409.76 L1903.33,1424.62 L1814.58,1327.19 L1815,1292.53 L1839.33,1281.4 L1873.32,1290.14"/>
</g>

<g fill="#d4d25f" fill-opacity="0.301961" stroke="#8a893d" stroke-opacity="1" stroke-width="3.07087" stroke-linecap="square" stroke-linejoin="bevel" transform="matrix(0.999751,0,0,0.999751,23.6162,11.8081)"
font-family="MS Shell Dlg 2" font-size="34.375" font-weight="400" font-style="normal" 
>
<path vector-effect="none" fill-rule="evenodd" d="M2199.8,912.718 L2232.61,905.795 L2230.79,895.18 L2278.64,881.796 L2279.1,893.334 L2308.72,887.796 L2345.64,1002.25 L2271.35,1017.02 L2240.36,1040.56 L2199.8,912.718"/>
</g>

<g fill="none" stroke="#e7e7e7" stroke-opacity="1" stroke-dasharray="12.2835,6.14173" stroke-dashoffset="0" stroke-width="3.07087" stroke-linecap="square" stroke-linejoin="bevel" transform="matrix(0.999751,0,0,0.999751,23.6162,11.8081)"
font-family="MS Shell Dlg 2" font-size="34.375" font-weight="400" font-style="normal" 
>
<path vector-effect="none" fill-rule="evenodd" d="M2561.72,1392.8 L2587.76,1488.54 L2638.33,1544.73 L2685.56,1584.96 L2699.04,1606.17 L2854.64,1788.77 L2818.3,1837.9 L2837.45,1917.9 L2814.16,1994.57 L2754.92,2021.24 L2659.13,2030.08 L2438.44,2026.44 L2334.39,2076.01 L2272.21,2107.29 L2122.05,2177.41 L2008.61,2224.65 L1924.39,2261.39 L1824.65,2300.13 L1731,2318.88 L1542.8,2209.38 L1433.34,2168.29 L1412.69,2165.48 L1402.35,2164.07 L1371.6,2150.05 L1307.17,2143.14 L1258.58,2122.78 L1205.81,2104.53 L1169.98,2075.28 L1106.11,2015.04 L1026.22,1936.08 L968.073,1873.95 L902.692,1820.51 L865.134,1757.65 L799.844,1643.73 L695.325,1465.27 L630.151,1334.72 L544.77,1297.26 L500.734,1226.85 L495.081,1118.79 L614.823,1041.44 L655.648,1025.72 L719.877,1022.05 L722.81,904.078 L754.661,838.754 L897.265,558.426 L926.697,507.619 L965.296,454.842 L1035.83,366.792 L1143.78,301.133 L1361.87,359.477 L1476.7,364.213 L1694.69,122.058 L1790.14,63.266 L1866.43,257.473 L1904.73,412.689 L2034.58,709.554 L2115.73,789.877 L2106.62,851.394 L2061.09,887.805 L2169.44,974.066 L2279.7,1094.03 L2459.84,1279.8 L2561.72,1392.8"/>
<path vector-effect="none" fill-rule="evenodd" d="M1764.83,1328.94 L1745.87,1364.63 L1716.52,1359.01 L1669.18,1330.19 L1602.79,1288.15 L1532.55,1247.61 L1476.72,1230.4 L1405.05,1191.35 L1408.6,1112.29 L1413.11,1055.15 L1412.12,1009.36 L1408.35,934.704 L1400.31,803.894 L1407.09,785.602 L1469.3,869.199 L1467.78,906.997 L1491,919.881 L1517.61,946.96 L1536.43,961.46 L1561.34,958.7 L1566.89,987.254 L1566.95,1028.05 L1583.09,1069.88 L1612.6,1112.59 L1649.65,1131.34 L1691,1162.26 L1720.57,1220.61 L1758.27,1291.91 L1763.47,1313.89 L1764.83,1328.94"/>
<path vector-effect="none" fill-rule="evenodd" d="M1950.85,1035.3 L1911.46,1055.23 L1851.52,1071.23 L1781.49,1078.11 L1756.23,1065.31 L1701.56,1034.29 L1635.39,1013.85 L1606.73,986.293 L1561.34,958.7 L1536.43,961.46 L1517.61,946.96 L1491,919.881 L1467.78,906.997 L1469.3,869.199 L1407.09,785.602 L1468.02,599.228 L1518.17,525.335 L1560.47,496.558 L1631.49,548.717 L1710.09,598.267 L1766.3,654.082 L1821.74,725.207 L1852.58,755.233 L1879.17,779.688 L1898.51,792.518 L1898.85,792.453 L1913.59,796.102 L1925.15,802.3 L1936.39,825.524 L1944.41,871.487 L1952.35,905.401 L1959.98,923.056 L1967.87,930.175 L1977.27,941.125 L1983.83,961.81 L1985.6,978.758 L1979.77,998.652 L1973.63,1022.13 L1973.58,1022.61 L1964.43,1032.51 L1950.85,1035.3"/>
</g>

<g fill="none" stroke="#e7e7e7" stroke-opacity="1" stroke-dasharray="12.2835,6.14173" stroke-dashoffset="0" stroke-width="3.07087" stroke-linecap="square" stroke-linejoin="bevel" transform="matrix(0.999751,0,0,0.999751,23.6162,11.8081)"
font-family="MS Shell Dlg 2" font-size="34.375" font-weight="400" font-style="normal" 
>
</g>

<g fill="none" stroke="#e7e7e7" stroke-opacity="1" stroke-dasharray="12.2835,6.14173" stroke-dashoffset="0" stroke-width="3.07087" stroke-linecap="square" stroke-linejoin="bevel" transform="matrix(0.999751,0,0,0.999751,1717.14,1307.29)"
font-family="MS Shell Dlg 2" font-size="34.375" font-weight="400" font-style="normal" 
>
</g>

<g fill="none" stroke="#e7e7e7" stroke-opacity="1" stroke-dasharray="12.2835,6.14173" stroke-dashoffset="0" stroke-width="3.07087" stroke-linecap="square" stroke-linejoin="bevel" transform="matrix(0.31992,0,0,0.31992,1717.14,1307.29)"
font-family="MS Shell Dlg 2" font-size="34.375" font-weight="400" font-style="normal" 
>
</g>

<g fill="#ffffff" fill-opacity="1" stroke="#ffffff" stroke-opacity="1" stroke-width="9.44882" stroke-linecap="square" stroke-linejoin="round" transform="matrix(0.999751,0,0,0.999751,1717.14,1307.29)"
font-family="MS Shell Dlg 2" font-size="34.375" font-weight="400" font-style="normal" 
>
<path vector-effect="none" fill-rule="nonzero" d="M27.2314,0 L20.376,0 L9.44531,-19.7666 L9.44531,0 L2.93262,0 L2.93262,-28.355 L11.6733,-28.355 L20.7188,-12.1113 L20.7188,-28.355 L27.2314,-28.355 L27.2314,0 M39.0645,0.590332 C37.4902,0.590332 36.0017,0.418945 34.5989,0.0761719 C33.196,-0.266602 32.0376,-0.666504 31.1235,-1.12354 L31.1235,-6.76025 L31.6758,-6.76025 C31.9932,-6.51904 32.355,-6.25244 32.7612,-5.96045 C33.1675,-5.66846 33.7324,-5.36377 34.4561,-5.04639 C35.0781,-4.75439 35.7795,-4.50366 36.5603,-4.29419 C37.3411,-4.08472 38.1885,-3.97998 39.1025,-3.97998 C40.042,-3.97998 40.8704,-4.12598 41.5876,-4.41797 C42.3049,-4.70996 42.6636,-5.17334 42.6636,-5.80811 C42.6636,-6.30322 42.4985,-6.67773 42.1685,-6.93164 C41.8384,-7.18555 41.1973,-7.42676 40.2451,-7.65527 C39.7373,-7.78223 39.0962,-7.9187 38.3218,-8.0647 C37.5474,-8.21069 36.8618,-8.37891 36.2651,-8.56934 C34.5894,-9.08984 33.3293,-9.86108 32.4851,-10.8831 C31.6409,-11.905 31.2188,-13.2476 31.2188,-14.9106 C31.2188,-15.8628 31.4377,-16.761 31.8757,-17.6052 C32.3137,-18.4495 32.958,-19.2017 33.8086,-19.8618 C34.6592,-20.5093 35.7097,-21.0234 36.9602,-21.4043 C38.2107,-21.7852 39.623,-21.9756 41.1973,-21.9756 C42.6953,-21.9756 44.0728,-21.8264 45.3296,-21.5281 C46.5864,-21.2297 47.6465,-20.8711 48.5098,-20.4521 L48.5098,-15.0439 L47.9766,-15.0439 C47.748,-15.2217 47.3862,-15.4597 46.8911,-15.7581 C46.396,-16.0564 45.9136,-16.3135 45.4438,-16.5293 C44.8853,-16.7832 44.26,-16.9927 43.5681,-17.1577 C42.8762,-17.3228 42.1685,-17.4053 41.4448,-17.4053 C40.48,-17.4053 39.6643,-17.2402 38.9978,-16.9102 C38.3313,-16.5801 37.998,-16.1421 37.998,-15.5962 C37.998,-15.1138 38.1631,-14.7329 38.4932,-14.4536 C38.8232,-14.1743 39.5405,-13.9014 40.645,-13.6348 C41.2163,-13.4951 41.8733,-13.3586 42.616,-13.2253 C43.3586,-13.092 44.0728,-12.9111 44.7583,-12.6826 C46.2944,-12.1875 47.4592,-11.4607 48.2527,-10.5022 C49.0461,-9.5437 49.4429,-8.271 49.4429,-6.68408 C49.4429,-5.68115 49.208,-4.72583 48.7383,-3.81812 C48.2686,-2.9104 47.6021,-2.14551 46.7388,-1.52344 C45.8247,-0.850586 44.7488,-0.330078 43.511,0.0380859 C42.2732,0.40625 40.791,0.590332 39.0645,0.590332 M72.4136,0 L65.7485,0 L65.7485,-2.36133 C64.5933,-1.39648 63.5332,-0.66333 62.5684,-0.161865 C61.6035,0.3396 60.4546,0.590332 59.1216,0.590332 C57.0015,0.590332 55.3479,-0.0793457 54.1609,-1.4187 C52.9739,-2.75806 52.3804,-4.77344 52.3804,-7.46484 L52.3804,-21.3853 L59.0835,-21.3853 L59.0835,-10.7783 C59.0835,-9.67383 59.1121,-8.77246 59.1692,-8.07422 C59.2263,-7.37598 59.3628,-6.78564 59.5786,-6.30322 C59.7817,-5.85889 60.0959,-5.52246 60.5212,-5.29395 C60.9465,-5.06543 61.54,-4.95117 62.3018,-4.95117 C62.7715,-4.95117 63.3269,-5.06543 63.968,-5.29395 C64.6091,-5.52246 65.2026,-5.8335 65.7485,-6.22705 L65.7485,-21.3853 L72.4136,-21.3853 L72.4136,0 M97.585,0 L90.8818,0 L90.8818,-10.6069 C90.8818,-11.4702 90.8469,-12.3303 90.7771,-13.1873 C90.7073,-14.0442 90.5771,-14.6758 90.3867,-15.082 C90.1582,-15.5645 89.8281,-15.9104 89.3965,-16.1199 C88.9648,-16.3293 88.3872,-16.4341 87.6636,-16.4341 C87.1177,-16.4341 86.5654,-16.3325 86.0068,-16.1294 C85.4482,-15.9263 84.8516,-15.6025 84.2168,-15.1582 L84.2168,0 L77.5518,0 L77.5518,-21.3853 L84.2168,-21.3853 L84.2168,-19.0239 C85.3086,-19.9507 86.3718,-20.6743 87.4065,-21.1948 C88.4412,-21.7153 89.5869,-21.9756 90.8438,-21.9756 C93.0273,-21.9756 94.6968,-21.2869 95.8521,-19.9094 C97.0073,-18.532 97.585,-16.5356 97.585,-13.9204 L97.585,0 M119.614,0 L100.914,0 L100.914,-4.39893 L111.121,-16.377 L101.371,-16.377 L101.371,-21.3853 L119.405,-21.3853 L119.405,-17.0625 L109.179,-5.10352 L119.614,-5.10352 L119.614,0 M143.414,0 L136.749,0 L136.749,-2.36133 C135.593,-1.39648 134.533,-0.66333 133.568,-0.161865 C132.604,0.3396 131.455,0.590332 130.122,0.590332 C128.001,0.590332 126.348,-0.0793457 125.161,-1.4187 C123.974,-2.75806 123.38,-4.77344 123.38,-7.46484 L123.38,-21.3853 L130.083,-21.3853 L130.083,-10.7783 C130.083,-9.67383 130.112,-8.77246 130.169,-8.07422 C130.226,-7.37598 130.363,-6.78564 130.579,-6.30322 C130.782,-5.85889 131.096,-5.52246 131.521,-5.29395 C131.947,-5.06543 132.54,-4.95117 133.302,-4.95117 C133.771,-4.95117 134.327,-5.06543 134.968,-5.29395 C135.609,-5.52246 136.203,-5.8335 136.749,-6.22705 L136.749,-21.3853 L143.414,-21.3853 L143.414,0 M178.918,-22.9468 L167.017,-22.9468 L167.017,-17.5957 L177.966,-17.5957 L177.966,-12.1875 L167.017,-12.1875 L167.017,0 L159.933,0 L159.933,-28.355 L178.918,-28.355 L178.918,-22.9468 M194.339,-5.57959 L194.339,-10.0356 C193.209,-9.92139 192.295,-9.823 191.597,-9.74048 C190.899,-9.65796 190.213,-9.49609 189.541,-9.25488 C188.957,-9.05176 188.503,-8.7439 188.179,-8.3313 C187.855,-7.9187 187.693,-7.36963 187.693,-6.68408 C187.693,-5.68115 187.963,-4.99243 188.503,-4.61792 C189.042,-4.24341 189.839,-4.05615 190.893,-4.05615 C191.477,-4.05615 192.073,-4.18945 192.683,-4.45605 C193.292,-4.72266 193.844,-5.09717 194.339,-5.57959 M194.339,-2.26611 C193.882,-1.88525 193.473,-1.54248 193.111,-1.23779 C192.749,-0.933105 192.264,-0.628418 191.654,-0.32373 C191.058,-0.0317383 190.477,0.19043 189.912,0.342773 C189.347,0.495117 188.557,0.571289 187.541,0.571289 C185.649,0.571289 184.078,-0.0634766 182.828,-1.33301 C181.577,-2.60254 180.952,-4.20215 180.952,-6.13184 C180.952,-7.71875 181.27,-9.00098 181.904,-9.97852 C182.539,-10.9561 183.453,-11.7305 184.646,-12.3018 C185.853,-12.8857 187.293,-13.292 188.969,-13.5205 C190.645,-13.749 192.448,-13.9268 194.377,-14.0537 L194.377,-14.168 C194.377,-15.3486 193.943,-16.1643 193.073,-16.615 C192.203,-17.0657 190.899,-17.291 189.16,-17.291 C188.373,-17.291 187.452,-17.1482 186.398,-16.8625 C185.345,-16.5769 184.316,-16.2119 183.313,-15.7676 L182.742,-15.7676 L182.742,-20.9282 C183.402,-21.1187 184.469,-21.344 185.941,-21.6042 C187.414,-21.8645 188.899,-21.9946 190.397,-21.9946 C194.079,-21.9946 196.761,-21.3821 198.443,-20.157 C200.125,-18.9319 200.966,-17.0625 200.966,-14.5488 L200.966,0 L194.339,0 L194.339,-2.26611 M219.91,-15.082 L219.358,-15.082 C219.104,-15.1709 218.736,-15.2375 218.253,-15.282 C217.771,-15.3264 217.238,-15.3486 216.654,-15.3486 C215.956,-15.3486 215.222,-15.2471 214.454,-15.0439 C213.686,-14.8408 212.94,-14.5996 212.217,-14.3203 L212.217,0 L205.552,0 L205.552,-21.3853 L212.217,-21.3853 L212.217,-18.3193 C212.521,-18.5986 212.944,-18.9509 213.483,-19.3762 C214.023,-19.8015 214.515,-20.1411 214.959,-20.395 C215.441,-20.687 216.003,-20.9377 216.644,-21.1472 C217.285,-21.3567 217.892,-21.4614 218.463,-21.4614 C218.679,-21.4614 218.92,-21.4551 219.187,-21.4424 C219.453,-21.4297 219.694,-21.4106 219.91,-21.3853 L219.91,-15.082 M248.107,0 L248.107,-10.6831 C248.107,-11.7368 248.088,-12.6255 248.05,-13.3491 C248.012,-14.0728 247.898,-14.6631 247.708,-15.1201 C247.517,-15.5771 247.222,-15.9104 246.822,-16.1199 C246.422,-16.3293 245.86,-16.4341 245.137,-16.4341 C244.629,-16.4341 244.127,-16.323 243.632,-16.1008 C243.137,-15.8787 242.598,-15.5645 242.014,-15.1582 L242.014,0 L235.311,0 L235.311,-10.6831 C235.311,-11.7241 235.288,-12.6096 235.244,-13.3396 C235.199,-14.0696 235.082,-14.6631 234.892,-15.1201 C234.701,-15.5771 234.406,-15.9104 234.006,-16.1199 C233.606,-16.3293 233.051,-16.4341 232.34,-16.4341 C231.794,-16.4341 231.261,-16.3071 230.74,-16.0532 C230.22,-15.7993 229.712,-15.501 229.217,-15.1582 L229.217,0 L222.552,0 L222.552,-21.3853 L229.217,-21.3853 L229.217,-19.0239 C230.309,-19.9507 231.337,-20.6743 232.302,-21.1948 C233.267,-21.7153 234.352,-21.9756 235.558,-21.9756 C236.866,-21.9756 238.015,-21.6646 239.005,-21.0425 C239.995,-20.4204 240.75,-19.4937 241.271,-18.2622 C242.553,-19.4556 243.762,-20.3728 244.899,-21.0139 C246.035,-21.655 247.187,-21.9756 248.355,-21.9756 C249.345,-21.9756 250.234,-21.8169 251.021,-21.4995 C251.808,-21.1821 252.475,-20.7061 253.021,-20.0713 C253.617,-19.3857 254.065,-18.5701 254.363,-17.6243 C254.661,-16.6785 254.811,-15.4438 254.811,-13.9204 L254.811,0 L248.107,0"/>
</g>

<g fill="none" stroke="#e7e7e7" stroke-opacity="1" stroke-dasharray="12.2835,6.14173" stroke-dashoffset="0" stroke-width="3.07087" stroke-linecap="square" stroke-linejoin="bevel" transform="matrix(0.31992,0,0,0.31992,1717.14,1307.29)"
font-family="MS Shell Dlg 2" font-size="34.375" font-weight="400" font-style="normal" 
>
</g>

<g fill="none" stroke="#e7e7e7" stroke-opacity="1" stroke-dasharray="12.2835,6.14173" stroke-dashoffset="0" stroke-width="3.07087" stroke-linecap="square" stroke-linejoin="bevel" transform="matrix(0.999751,0,0,0.999751,1717.14,1307.29)"
font-family="MS Shell Dlg 2" font-size="34.375" font-weight="400" font-style="normal" 
>
</g>

<g fill="none" stroke="#e7e7e7" stroke-opacity="1" stroke-dasharray="12.2835,6.14173" stroke-dashoffset="0" stroke-width="3.07087" stroke-linecap="square" stroke-linejoin="bevel" transform="matrix(0.999751,0,0,0.999751,23.6162,11.8081)"
font-family="MS Shell Dlg 2" font-size="34.375" font-weight="400" font-style="normal" 
>
</g>

<g fill="none" stroke="#e7e7e7" stroke-opacity="1" stroke-dasharray="12.2835,6.14173" stroke-dashoffset="0" stroke-width="3.07087" stroke-linecap="square" stroke-linejoin="bevel" transform="matrix(0.31992,0,0,0.31992,1717.14,1307.29)"
font-family="MS Shell Dlg 2" font-size="34.375" font-weight="400" font-style="normal" 
>
</g>

<g fill="#c41555" fill-opacity="1" stroke="none" transform="matrix(0.999751,0,0,0.999751,1717.14,1307.29)"
font-family="MS Shell Dlg 2" font-size="34.375" font-weight="400" font-style="normal" 
>
<path vector-effect="non-scaling-stroke" fill-rule="nonzero" d="M27.2314,0 L20.376,0 L9.44531,-19.7666 L9.44531,0 L2.93262,0 L2.93262,-28.355 L11.6733,-28.355 L20.7188,-12.1113 L20.7188,-28.355 L27.2314,-28.355 L27.2314,0 M39.0645,0.590332 C37.4902,0.590332 36.0017,0.418945 34.5989,0.0761719 C33.196,-0.266602 32.0376,-0.666504 31.1235,-1.12354 L31.1235,-6.76025 L31.6758,-6.76025 C31.9932,-6.51904 32.355,-6.25244 32.7612,-5.96045 C33.1675,-5.66846 33.7324,-5.36377 34.4561,-5.04639 C35.0781,-4.75439 35.7795,-4.50366 36.5603,-4.29419 C37.3411,-4.08472 38.1885,-3.97998 39.1025,-3.97998 C40.042,-3.97998 40.8704,-4.12598 41.5876,-4.41797 C42.3049,-4.70996 42.6636,-5.17334 42.6636,-5.80811 C42.6636,-6.30322 42.4985,-6.67773 42.1685,-6.93164 C41.8384,-7.18555 41.1973,-7.42676 40.2451,-7.65527 C39.7373,-7.78223 39.0962,-7.9187 38.3218,-8.0647 C37.5474,-8.21069 36.8618,-8.37891 36.2651,-8.56934 C34.5894,-9.08984 33.3293,-9.86108 32.4851,-10.8831 C31.6409,-11.905 31.2188,-13.2476 31.2188,-14.9106 C31.2188,-15.8628 31.4377,-16.761 31.8757,-17.6052 C32.3137,-18.4495 32.958,-19.2017 33.8086,-19.8618 C34.6592,-20.5093 35.7097,-21.0234 36.9602,-21.4043 C38.2107,-21.7852 39.623,-21.9756 41.1973,-21.9756 C42.6953,-21.9756 44.0728,-21.8264 45.3296,-21.5281 C46.5864,-21.2297 47.6465,-20.8711 48.5098,-20.4521 L48.5098,-15.0439 L47.9766,-15.0439 C47.748,-15.2217 47.3862,-15.4597 46.8911,-15.7581 C46.396,-16.0564 45.9136,-16.3135 45.4438,-16.5293 C44.8853,-16.7832 44.26,-16.9927 43.5681,-17.1577 C42.8762,-17.3228 42.1685,-17.4053 41.4448,-17.4053 C40.48,-17.4053 39.6643,-17.2402 38.9978,-16.9102 C38.3313,-16.5801 37.998,-16.1421 37.998,-15.5962 C37.998,-15.1138 38.1631,-14.7329 38.4932,-14.4536 C38.8232,-14.1743 39.5405,-13.9014 40.645,-13.6348 C41.2163,-13.4951 41.8733,-13.3586 42.616,-13.2253 C43.3586,-13.092 44.0728,-12.9111 44.7583,-12.6826 C46.2944,-12.1875 47.4592,-11.4607 48.2527,-10.5022 C49.0461,-9.5437 49.4429,-8.271 49.4429,-6.68408 C49.4429,-5.68115 49.208,-4.72583 48.7383,-3.81812 C48.2686,-2.9104 47.6021,-2.14551 46.7388,-1.52344 C45.8247,-0.850586 44.7488,-0.330078 43.511,0.0380859 C42.2732,0.40625 40.791,0.590332 39.0645,0.590332 M72.4136,0 L65.7485,0 L65.7485,-2.36133 C64.5933,-1.39648 63.5332,-0.66333 62.5684,-0.161865 C61.6035,0.3396 60.4546,0.590332 59.1216,0.590332 C57.0015,0.590332 55.3479,-0.0793457 54.1609,-1.4187 C52.9739,-2.75806 52.3804,-4.77344 52.3804,-7.46484 L52.3804,-21.3853 L59.0835,-21.3853 L59.0835,-10.7783 C59.0835,-9.67383 59.1121,-8.77246 59.1692,-8.07422 C59.2263,-7.37598 59.3628,-6.78564 59.5786,-6.30322 C59.7817,-5.85889 60.0959,-5.52246 60.5212,-5.29395 C60.9465,-5.06543 61.54,-4.95117 62.3018,-4.95117 C62.7715,-4.95117 63.3269,-5.06543 63.968,-5.29395 C64.6091,-5.52246 65.2026,-5.8335 65.7485,-6.22705 L65.7485,-21.3853 L72.4136,-21.3853 L72.4136,0 M97.585,0 L90.8818,0 L90.8818,-10.6069 C90.8818,-11.4702 90.8469,-12.3303 90.7771,-13.1873 C90.7073,-14.0442 90.5771,-14.6758 90.3867,-15.082 C90.1582,-15.5645 89.8281,-15.9104 89.3965,-16.1199 C88.9648,-16.3293 88.3872,-16.4341 87.6636,-16.4341 C87.1177,-16.4341 86.5654,-16.3325 86.0068,-16.1294 C85.4482,-15.9263 84.8516,-15.6025 84.2168,-15.1582 L84.2168,0 L77.5518,0 L77.5518,-21.3853 L84.2168,-21.3853 L84.2168,-19.0239 C85.3086,-19.9507 86.3718,-20.6743 87.4065,-21.1948 C88.4412,-21.7153 89.5869,-21.9756 90.8438,-21.9756 C93.0273,-21.9756 94.6968,-21.2869 95.8521,-19.9094 C97.0073,-18.532 97.585,-16.5356 97.585,-13.9204 L97.585,0 M119.614,0 L100.914,0 L100.914,-4.39893 L111.121,-16.377 L101.371,-16.377 L101.371,-21.3853 L119.405,-21.3853 L119.405,-17.0625 L109.179,-5.10352 L119.614,-5.10352 L119.614,0 M143.414,0 L136.749,0 L136.749,-2.36133 C135.593,-1.39648 134.533,-0.66333 133.568,-0.161865 C132.604,0.3396 131.455,0.590332 130.122,0.590332 C128.001,0.590332 126.348,-0.0793457 125.161,-1.4187 C123.974,-2.75806 123.38,-4.77344 123.38,-7.46484 L123.38,-21.3853 L130.083,-21.3853 L130.083,-10.7783 C130.083,-9.67383 130.112,-8.77246 130.169,-8.07422 C130.226,-7.37598 130.363,-6.78564 130.579,-6.30322 C130.782,-5.85889 131.096,-5.52246 131.521,-5.29395 C131.947,-5.06543 132.54,-4.95117 133.302,-4.95117 C133.771,-4.95117 134.327,-5.06543 134.968,-5.29395 C135.609,-5.52246 136.203,-5.8335 136.749,-6.22705 L136.749,-21.3853 L143.414,-21.3853 L143.414,0 M178.918,-22.9468 L167.017,-22.9468 L167.017,-17.5957 L177.966,-17.5957 L177.966,-12.1875 L167.017,-12.1875 L167.017,0 L159.933,0 L159.933,-28.355 L178.918,-28.355 L178.918,-22.9468 M194.339,-5.57959 L194.339,-10.0356 C193.209,-9.92139 192.295,-9.823 191.597,-9.74048 C190.899,-9.65796 190.213,-9.49609 189.541,-9.25488 C188.957,-9.05176 188.503,-8.7439 188.179,-8.3313 C187.855,-7.9187 187.693,-7.36963 187.693,-6.68408 C187.693,-5.68115 187.963,-4.99243 188.503,-4.61792 C189.042,-4.24341 189.839,-4.05615 190.893,-4.05615 C191.477,-4.05615 192.073,-4.18945 192.683,-4.45605 C193.292,-4.72266 193.844,-5.09717 194.339,-5.57959 M194.339,-2.26611 C193.882,-1.88525 193.473,-1.54248 193.111,-1.23779 C192.749,-0.933105 192.264,-0.628418 191.654,-0.32373 C191.058,-0.0317383 190.477,0.19043 189.912,0.342773 C189.347,0.495117 188.557,0.571289 187.541,0.571289 C185.649,0.571289 184.078,-0.0634766 182.828,-1.33301 C181.577,-2.60254 180.952,-4.20215 180.952,-6.13184 C180.952,-7.71875 181.27,-9.00098 181.904,-9.97852 C182.539,-10.9561 183.453,-11.7305 184.646,-12.3018 C185.853,-12.8857 187.293,-13.292 188.969,-13.5205 C190.645,-13.749 192.448,-13.9268 194.377,-14.0537 L194.377,-14.168 C194.377,-15.3486 193.943,-16.1643 193.073,-16.615 C192.203,-17.0657 190.899,-17.291 189.16,-17.291 C188.373,-17.291 187.452,-17.1482 186.398,-16.8625 C185.345,-16.5769 184.316,-16.2119 183.313,-15.7676 L182.742,-15.7676 L182.742,-20.9282 C183.402,-21.1187 184.469,-21.344 185.941,-21.6042 C187.414,-21.8645 188.899,-21.9946 190.397,-21.9946 C194.079,-21.9946 196.761,-21.3821 198.443,-20.157 C200.125,-18.9319 200.966,-17.0625 200.966,-14.5488 L200.966,0 L194.339,0 L194.339,-2.26611 M219.91,-15.082 L219.358,-15.082 C219.104,-15.1709 218.736,-15.2375 218.253,-15.282 C217.771,-15.3264 217.238,-15.3486 216.654,-15.3486 C215.956,-15.3486 215.222,-15.2471 214.454,-15.0439 C213.686,-14.8408 212.94,-14.5996 212.217,-14.3203 L212.217,0 L205.552,0 L205.552,-21.3853 L212.217,-21.3853 L212.217,-18.3193 C212.521,-18.5986 212.944,-18.9509 213.483,-19.3762 C214.023,-19.8015 214.515,-20.1411 214.959,-20.395 C215.441,-20.687 216.003,-20.9377 216.644,-21.1472 C217.285,-21.3567 217.892,-21.4614 218.463,-21.4614 C218.679,-21.4614 218.92,-21.4551 219.187,-21.4424 C219.453,-21.4297 219.694,-21.4106 219.91,-21.3853 L219.91,-15.082 M248.107,0 L248.107,-10.6831 C248.107,-11.7368 248.088,-12.6255 248.05,-13.3491 C248.012,-14.0728 247.898,-14.6631 247.708,-15.1201 C247.517,-15.5771 247.222,-15.9104 246.822,-16.1199 C246.422,-16.3293 245.86,-16.4341 245.137,-16.4341 C244.629,-16.4341 244.127,-16.323 243.632,-16.1008 C243.137,-15.8787 242.598,-15.5645 242.014,-15.1582 L242.014,0 L235.311,0 L235.311,-10.6831 C235.311,-11.7241 235.288,-12.6096 235.244,-13.3396 C235.199,-14.0696 235.082,-14.6631 234.892,-15.1201 C234.701,-15.5771 234.406,-15.9104 234.006,-16.1199 C233.606,-16.3293 233.051,-16.4341 232.34,-16.4341 C231.794,-16.4341 231.261,-16.3071 230.74,-16.0532 C230.22,-15.7993 229.712,-15.501 229.217,-15.1582 L229.217,0 L222.552,0 L222.552,-21.3853 L229.217,-21.3853 L229.217,-19.0239 C230.309,-19.9507 231.337,-20.6743 232.302,-21.1948 C233.267,-21.7153 234.352,-21.9756 235.558,-21.9756 C236.866,-21.9756 238.015,-21.6646 239.005,-21.0425 C239.995,-20.4204 240.75,-19.4937 241.271,-18.2622 C242.553,-19.4556 243.762,-20.3728 244.899,-21.0139 C246.035,-21.655 247.187,-21.9756 248.355,-21.9756 C249.345,-21.9756 250.234,-21.8169 251.021,-21.4995 C251.808,-21.1821 252.475,-20.7061 253.021,-20.0713 C253.617,-19.3857 254.065,-18.5701 254.363,-17.6243 C254.661,-16.6785 254.811,-15.4438 254.811,-13.9204 L254.811,0 L248.107,0"/>
</g>

<g fill="none" stroke="#e7e7e7" stroke-opacity="1" stroke-dasharray="12.2835,6.14173" stroke-dashoffset="0" stroke-width="3.07087" stroke-linecap="square" stroke-linejoin="bevel" transform="matrix(0.31992,0,0,0.31992,1717.14,1307.29)"
font-family="MS Shell Dlg 2" font-size="34.375" font-weight="400" font-style="normal" 
>
</g>

<g fill="none" stroke="#e7e7e7" stroke-opacity="1" stroke-dasharray="12.2835,6.14173" stroke-dashoffset="0" stroke-width="3.07087" stroke-linecap="square" stroke-linejoin="bevel" transform="matrix(0.999751,0,0,0.999751,23.6162,11.8081)"
font-family="MS Shell Dlg 2" font-size="34.375" font-weight="400" font-style="normal" 
>
</g>

<g fill="none" stroke="#e7e7e7" stroke-opacity="1" stroke-dasharray="12.2835,6.14173" stroke-dashoffset="0" stroke-width="3.07087" stroke-linecap="square" stroke-linejoin="bevel" transform="matrix(0.999751,0,0,0.999751,2169.06,979.369)"
font-family="MS Shell Dlg 2" font-size="34.375" font-weight="400" font-style="normal" 
>
</g>

<g fill="none" stroke="#e7e7e7" stroke-opacity="1" stroke-dasharray="12.2835,6.14173" stroke-dashoffset="0" stroke-width="3.07087" stroke-linecap="square" stroke-linejoin="bevel" transform="matrix(0.31992,0,0,0.31992,2169.06,979.369)"
font-family="MS Shell Dlg 2" font-size="34.375" font-weight="400" font-style="normal" 
>
</g>

<g fill="#ffffff" fill-opacity="1" stroke="#ffffff" stroke-opacity="1" stroke-width="9.44882" stroke-linecap="square" stroke-linejoin="round" transform="matrix(0.999751,0,0,0.999751,2169.06,979.369)"
font-family="MS Shell Dlg 2" font-size="34.375" font-weight="400" font-style="normal" 
>
<path vector-effect="none" fill-rule="nonzero" d="M-0.0996094,0 L8.25098,-24.7197 L15.0244,-24.7197 L23.375,0 L16.9834,0 L15.4395,-5.04688 L7.66992,-5.04688 L6.12598,0 L-0.0996094,0 M14.0781,-9.5293 L11.5547,-17.6807 L9.03125,-9.5293 L14.0781,-9.5293 M36.3643,-5.87695 L36.3643,-14.3271 C36.0765,-14.46 35.7223,-14.5706 35.3018,-14.6592 C34.8812,-14.7477 34.4606,-14.792 34.04,-14.792 C32.6455,-14.792 31.5968,-14.341 30.894,-13.439 C30.1912,-12.5369 29.8398,-11.278 29.8398,-9.66211 C29.8398,-8.85417 29.8924,-8.17074 29.9976,-7.61182 C30.1027,-7.0529 30.2992,-6.55762 30.5869,-6.12598 C30.8636,-5.7054 31.2261,-5.38721 31.6743,-5.17139 C32.1226,-4.95557 32.6953,-4.84766 33.3926,-4.84766 C33.9128,-4.84766 34.4246,-4.9362 34.9282,-5.11328 C35.4318,-5.29036 35.9105,-5.54492 36.3643,-5.87695 M42.1748,-2.1416 C42.1748,-0.415039 41.9258,1.05143 41.4277,2.25781 C40.9297,3.46419 40.249,4.40495 39.3857,5.08008 C38.5225,5.76628 37.4876,6.26156 36.2812,6.56592 C35.0749,6.87028 33.7357,7.02246 32.2637,7.02246 C31.0241,7.02246 29.8481,6.94222 28.7358,6.78174 C27.6235,6.62126 26.6579,6.43587 25.8389,6.22559 L25.8389,1.56055 L26.5195,1.56055 C26.8073,1.67122 27.1476,1.79297 27.5405,1.92578 C27.9334,2.05859 28.3291,2.18034 28.7275,2.29102 C29.2035,2.41276 29.6683,2.51237 30.1221,2.58984 C30.5758,2.66732 31.0407,2.70605 31.5166,2.70605 C32.5016,2.70605 33.3234,2.60368 33.9819,2.39893 C34.6405,2.19417 35.1357,1.90365 35.4678,1.52734 C35.7998,1.13997 36.0322,0.683431 36.165,0.157715 C36.2979,-0.368001 36.3643,-1.0293 36.3643,-1.82617 L36.3643,-2.1748 C35.7113,-1.59928 34.9559,-1.13721 34.0981,-0.788574 C33.2404,-0.439941 32.3577,-0.265625 31.4502,-0.265625 C29.0374,-0.265625 27.1753,-1.05143 25.8638,-2.62305 C24.5522,-4.19466 23.8965,-6.58529 23.8965,-9.79492 C23.8965,-11.2559 24.0985,-12.5674 24.5024,-13.7295 C24.9064,-14.8916 25.4681,-15.8822 26.1875,-16.7012 C26.8737,-17.487 27.7038,-18.0929 28.6777,-18.519 C29.6517,-18.9451 30.6644,-19.1582 31.7158,-19.1582 C32.6676,-19.1582 33.5199,-19.0365 34.2725,-18.793 C35.0251,-18.5495 35.7113,-18.223 36.3311,-17.8135 L36.5469,-18.6436 L42.1748,-18.6436 L42.1748,-2.1416 M68.6367,-12.335 C68.6367,-10.0329 68.1331,-7.97152 67.126,-6.15088 C66.1188,-4.33024 64.846,-2.93294 63.3076,-1.95898 C62.0238,-1.12891 60.6265,-0.594889 59.1157,-0.356934 C57.605,-0.118978 55.9974,0 54.293,0 L46.5566,0 L46.5566,-24.7197 L54.2266,-24.7197 C55.9642,-24.7197 57.5911,-24.609 59.1074,-24.3877 C60.6237,-24.1663 62.0459,-23.6296 63.374,-22.7773 C65.001,-21.737 66.2848,-20.3341 67.2256,-18.5688 C68.1663,-16.8035 68.6367,-14.7256 68.6367,-12.335 M62.2617,-12.3848 C62.2617,-14.0117 61.9823,-15.4035 61.4233,-16.5601 C60.8644,-17.7166 60.0039,-18.6214 58.8418,-19.2744 C58.0007,-19.7393 57.118,-19.9938 56.1938,-20.0381 C55.2697,-20.0824 54.1657,-20.1045 52.8818,-20.1045 L52.7656,-20.1045 L52.7656,-4.63184 L52.8818,-4.63184 C54.2764,-4.63184 55.4523,-4.65674 56.4097,-4.70654 C57.367,-4.75635 58.2773,-5.05241 59.1406,-5.59473 C60.1589,-6.23665 60.9336,-7.12207 61.4648,-8.25098 C61.9961,-9.37988 62.2617,-10.7578 62.2617,-12.3848 M81.7705,0.498047 C78.251,0.498047 75.5532,-0.343099 73.6772,-2.02539 C71.8013,-3.70768 70.8633,-6.10384 70.8633,-9.21387 C70.8633,-12.2575 71.7376,-14.6868 73.4863,-16.502 C75.235,-18.3171 77.681,-19.2246 80.8242,-19.2246 C83.6797,-19.2246 85.8268,-18.4554 87.2656,-16.917 C88.7044,-15.3786 89.4238,-13.1761 89.4238,-10.3096 L89.4238,-8.21777 L76.6904,-8.21777 C76.7458,-7.35449 76.9284,-6.63232 77.2383,-6.05127 C77.5482,-5.47021 77.9577,-5.00814 78.4668,-4.66504 C78.9648,-4.32194 79.5459,-4.07568 80.21,-3.92627 C80.874,-3.77686 81.599,-3.70215 82.3848,-3.70215 C83.0599,-3.70215 83.724,-3.77686 84.377,-3.92627 C85.0299,-4.07568 85.6276,-4.27214 86.1699,-4.51562 C86.6458,-4.72591 87.0858,-4.9528 87.4897,-5.19629 C87.8937,-5.43978 88.223,-5.6556 88.4775,-5.84375 L89.0918,-5.84375 L89.0918,-1.0459 C88.6159,-0.857747 88.1815,-0.683431 87.7886,-0.522949 C87.3957,-0.362467 86.8561,-0.199219 86.1699,-0.0332031 C85.5391,0.132812 84.8888,0.262858 84.2192,0.356934 C83.5496,0.451009 82.7334,0.498047 81.7705,0.498047 M83.6963,-11.7207 C83.6631,-12.9492 83.3781,-13.8844 82.8413,-14.5264 C82.3045,-15.1683 81.4827,-15.4893 80.376,-15.4893 C79.2471,-15.4893 78.3644,-15.1517 77.728,-14.4766 C77.0916,-13.8014 76.7402,-12.8828 76.6738,-11.7207 L83.6963,-11.7207 M109.673,-18.6436 L102.982,0 L96.6406,0 L90,-18.6436 L96.1094,-18.6436 L99.9277,-6.30859 L103.696,-18.6436 L109.673,-18.6436 M123.215,0.481445 C119.507,0.481445 116.563,-0.63916 114.383,-2.88037 C112.202,-5.12158 111.112,-8.27311 111.112,-12.335 C111.112,-16.2529 112.205,-19.3768 114.391,-21.7065 C116.577,-24.0363 119.524,-25.2012 123.231,-25.2012 C124.216,-25.2012 125.102,-25.1458 125.888,-25.0352 C126.674,-24.9245 127.426,-24.7695 128.146,-24.5703 C128.71,-24.4043 129.324,-24.1774 129.988,-23.8896 C130.652,-23.6019 131.189,-23.3529 131.599,-23.1426 L131.599,-17.249 L130.968,-17.249 C130.669,-17.5146 130.293,-17.8328 129.839,-18.2036 C129.385,-18.5744 128.87,-18.9368 128.295,-19.291 C127.719,-19.6452 127.086,-19.9468 126.394,-20.1958 C125.702,-20.4448 124.98,-20.5693 124.228,-20.5693 C123.331,-20.5693 122.509,-20.4282 121.762,-20.146 C121.015,-19.8638 120.304,-19.374 119.629,-18.6768 C119.009,-18.0459 118.503,-17.1937 118.11,-16.1201 C117.717,-15.0465 117.521,-13.7793 117.521,-12.3184 C117.521,-10.7799 117.725,-9.48779 118.135,-8.44189 C118.544,-7.396 119.081,-6.55208 119.745,-5.91016 C120.387,-5.29036 121.104,-4.84212 121.895,-4.56543 C122.686,-4.28874 123.475,-4.15039 124.261,-4.15039 C125.08,-4.15039 125.86,-4.28597 126.602,-4.55713 C127.343,-4.82829 127.968,-5.12988 128.478,-5.46191 C129.031,-5.80501 129.518,-6.15365 129.938,-6.50781 C130.359,-6.86198 130.724,-7.17741 131.034,-7.4541 L131.599,-7.4541 L131.599,-1.64355 C131.145,-1.43327 130.619,-1.19255 130.021,-0.921387 C129.424,-0.650228 128.81,-0.420573 128.179,-0.232422 C127.404,0 126.679,0.177083 126.004,0.298828 C125.329,0.420573 124.399,0.481445 123.215,0.481445 M153.121,-9.31348 C153.121,-6.24772 152.283,-3.83219 150.606,-2.06689 C148.929,-0.301595 146.558,0.581055 143.492,0.581055 C140.449,0.581055 138.083,-0.301595 136.395,-2.06689 C134.707,-3.83219 133.863,-6.24772 133.863,-9.31348 C133.863,-12.4124 134.707,-14.839 136.395,-16.5933 C138.083,-18.3475 140.449,-19.2246 143.492,-19.2246 C146.547,-19.2246 148.915,-18.342 150.598,-16.5767 C152.28,-14.8114 153.121,-12.3903 153.121,-9.31348 M147.161,-9.28027 C147.161,-10.387 147.07,-11.3084 146.887,-12.0444 C146.705,-12.7804 146.453,-13.3698 146.132,-13.8125 C145.789,-14.2773 145.401,-14.6011 144.97,-14.7837 C144.538,-14.9663 144.046,-15.0576 143.492,-15.0576 C142.972,-15.0576 142.502,-14.9774 142.081,-14.8169 C141.66,-14.6564 141.273,-14.3493 140.919,-13.8955 C140.587,-13.4639 140.321,-12.8717 140.122,-12.1191 C139.923,-11.3665 139.823,-10.4202 139.823,-9.28027 C139.823,-8.1403 139.917,-7.21891 140.105,-6.51611 C140.294,-5.81331 140.537,-5.25163 140.836,-4.83105 C141.146,-4.39941 141.533,-4.08398 141.998,-3.88477 C142.463,-3.68555 142.978,-3.58594 143.542,-3.58594 C144.007,-3.58594 144.48,-3.68555 144.961,-3.88477 C145.443,-4.08398 145.827,-4.38281 146.115,-4.78125 C146.458,-5.25716 146.718,-5.82992 146.896,-6.49951 C147.073,-7.16911 147.161,-8.09603 147.161,-9.28027 M183.108,-20.0049 L172.732,-20.0049 L172.732,-15.3398 L182.278,-15.3398 L182.278,-10.625 L172.732,-10.625 L172.732,0 L166.557,0 L166.557,-24.7197 L183.108,-24.7197 L183.108,-20.0049 M196.501,-4.86426 L196.501,-8.74902 C195.516,-8.64941 194.719,-8.56364 194.11,-8.4917 C193.502,-8.41976 192.904,-8.27865 192.317,-8.06836 C191.808,-7.89128 191.413,-7.62288 191.13,-7.26318 C190.848,-6.90348 190.707,-6.4248 190.707,-5.82715 C190.707,-4.9528 190.942,-4.35238 191.413,-4.02588 C191.883,-3.69938 192.577,-3.53613 193.496,-3.53613 C194.005,-3.53613 194.525,-3.65234 195.057,-3.88477 C195.588,-4.11719 196.069,-4.44368 196.501,-4.86426 M196.501,-1.97559 C196.103,-1.64355 195.746,-1.34473 195.43,-1.0791 C195.115,-0.813477 194.691,-0.547852 194.16,-0.282227 C193.64,-0.0276693 193.134,0.166016 192.641,0.298828 C192.149,0.431641 191.46,0.498047 190.574,0.498047 C188.925,0.498047 187.556,-0.0553385 186.465,-1.16211 C185.375,-2.26888 184.83,-3.66341 184.83,-5.3457 C184.83,-6.72917 185.107,-7.84701 185.66,-8.69922 C186.214,-9.55143 187.01,-10.2266 188.051,-10.7246 C189.102,-11.2337 190.358,-11.5879 191.819,-11.7871 C193.28,-11.9863 194.852,-12.1413 196.534,-12.252 L196.534,-12.3516 C196.534,-13.3809 196.155,-14.092 195.397,-14.4849 C194.639,-14.8778 193.502,-15.0742 191.985,-15.0742 C191.299,-15.0742 190.497,-14.9497 189.578,-14.7007 C188.66,-14.4517 187.763,-14.1335 186.889,-13.7461 L186.391,-13.7461 L186.391,-18.2451 C186.966,-18.4111 187.896,-18.6076 189.18,-18.8345 C190.464,-19.0614 191.758,-19.1748 193.064,-19.1748 C196.274,-19.1748 198.612,-18.6408 200.079,-17.5728 C201.545,-16.5047 202.278,-14.875 202.278,-12.6836 L202.278,0 L196.501,0 L196.501,-1.97559 M218.742,-13.1484 L218.261,-13.1484 C218.039,-13.2259 217.718,-13.284 217.298,-13.3228 C216.877,-13.3615 216.412,-13.3809 215.903,-13.3809 C215.295,-13.3809 214.655,-13.2923 213.986,-13.1152 C213.316,-12.9382 212.666,-12.7279 212.035,-12.4844 L212.035,0 L206.225,0 L206.225,-18.6436 L212.035,-18.6436 L212.035,-15.9707 C212.301,-16.2142 212.669,-16.5213 213.139,-16.8921 C213.61,-17.2629 214.038,-17.5589 214.426,-17.7803 C214.846,-18.0348 215.336,-18.2534 215.895,-18.436 C216.454,-18.6187 216.982,-18.71 217.48,-18.71 C217.669,-18.71 217.879,-18.7044 218.111,-18.6934 C218.344,-18.6823 218.554,-18.6657 218.742,-18.6436 L218.742,-13.1484 M243.504,0 L243.504,-9.31348 C243.504,-10.2321 243.487,-11.0068 243.454,-11.6377 C243.421,-12.2686 243.321,-12.7832 243.155,-13.1816 C242.989,-13.5801 242.732,-13.8706 242.383,-14.0532 C242.035,-14.2358 241.545,-14.3271 240.914,-14.3271 C240.471,-14.3271 240.034,-14.2303 239.603,-14.0366 C239.171,-13.8429 238.701,-13.569 238.191,-13.2148 L238.191,0 L232.348,0 L232.348,-9.31348 C232.348,-10.221 232.328,-10.993 232.29,-11.6294 C232.251,-12.2658 232.148,-12.7832 231.982,-13.1816 C231.816,-13.5801 231.559,-13.8706 231.21,-14.0532 C230.862,-14.2358 230.378,-14.3271 229.758,-14.3271 C229.282,-14.3271 228.817,-14.2165 228.363,-13.9951 C227.91,-13.7738 227.467,-13.5137 227.035,-13.2148 L227.035,0 L221.225,0 L221.225,-18.6436 L227.035,-18.6436 L227.035,-16.585 C227.987,-17.3929 228.883,-18.0238 229.725,-18.4775 C230.566,-18.9313 231.512,-19.1582 232.563,-19.1582 C233.703,-19.1582 234.705,-18.887 235.568,-18.3447 C236.432,-17.8024 237.09,-16.9945 237.544,-15.9209 C238.662,-16.9613 239.716,-17.7609 240.707,-18.3198 C241.697,-18.8787 242.701,-19.1582 243.72,-19.1582 C244.583,-19.1582 245.358,-19.0199 246.044,-18.7432 C246.73,-18.4665 247.311,-18.0514 247.787,-17.498 C248.307,-16.9004 248.697,-16.1893 248.958,-15.3647 C249.218,-14.5402 249.348,-13.4639 249.348,-12.1357 L249.348,0 L243.504,0"/>
</g>

<g fill="none" stroke="#e7e7e7" stroke-opacity="1" stroke-dasharray="12.2835,6.14173" stroke-dashoffset="0" stroke-width="3.07087" stroke-linecap="square" stroke-linejoin="bevel" transform="matrix(0.31992,0,0,0.31992,2169.06,979.369)"
font-family="MS Shell Dlg 2" font-size="34.375" font-weight="400" font-style="normal" 
>
</g>

<g fill="none" stroke="#e7e7e7" stroke-opacity="1" stroke-dasharray="12.2835,6.14173" stroke-dashoffset="0" stroke-width="3.07087" stroke-linecap="square" stroke-linejoin="bevel" transform="matrix(0.999751,0,0,0.999751,2169.06,979.369)"
font-family="MS Shell Dlg 2" font-size="34.375" font-weight="400" font-style="normal" 
>
</g>

<g fill="none" stroke="#e7e7e7" stroke-opacity="1" stroke-dasharray="12.2835,6.14173" stroke-dashoffset="0" stroke-width="3.07087" stroke-linecap="square" stroke-linejoin="bevel" transform="matrix(0.999751,0,0,0.999751,23.6162,11.8081)"
font-family="MS Shell Dlg 2" font-size="34.375" font-weight="400" font-style="normal" 
>
</g>

<g fill="none" stroke="#e7e7e7" stroke-opacity="1" stroke-dasharray="12.2835,6.14173" stroke-dashoffset="0" stroke-width="3.07087" stroke-linecap="square" stroke-linejoin="bevel" transform="matrix(0.31992,0,0,0.31992,2169.06,979.369)"
font-family="MS Shell Dlg 2" font-size="34.375" font-weight="400" font-style="normal" 
>
</g>

<g fill="#8a893d" fill-opacity="1" stroke="none" transform="matrix(0.999751,0,0,0.999751,2169.06,979.369)"
font-family="MS Shell Dlg 2" font-size="34.375" font-weight="400" font-style="normal" 
>
<path vector-effect="non-scaling-stroke" fill-rule="nonzero" d="M-0.0996094,0 L8.25098,-24.7197 L15.0244,-24.7197 L23.375,0 L16.9834,0 L15.4395,-5.04688 L7.66992,-5.04688 L6.12598,0 L-0.0996094,0 M14.0781,-9.5293 L11.5547,-17.6807 L9.03125,-9.5293 L14.0781,-9.5293 M36.3643,-5.87695 L36.3643,-14.3271 C36.0765,-14.46 35.7223,-14.5706 35.3018,-14.6592 C34.8812,-14.7477 34.4606,-14.792 34.04,-14.792 C32.6455,-14.792 31.5968,-14.341 30.894,-13.439 C30.1912,-12.5369 29.8398,-11.278 29.8398,-9.66211 C29.8398,-8.85417 29.8924,-8.17074 29.9976,-7.61182 C30.1027,-7.0529 30.2992,-6.55762 30.5869,-6.12598 C30.8636,-5.7054 31.2261,-5.38721 31.6743,-5.17139 C32.1226,-4.95557 32.6953,-4.84766 33.3926,-4.84766 C33.9128,-4.84766 34.4246,-4.9362 34.9282,-5.11328 C35.4318,-5.29036 35.9105,-5.54492 36.3643,-5.87695 M42.1748,-2.1416 C42.1748,-0.415039 41.9258,1.05143 41.4277,2.25781 C40.9297,3.46419 40.249,4.40495 39.3857,5.08008 C38.5225,5.76628 37.4876,6.26156 36.2812,6.56592 C35.0749,6.87028 33.7357,7.02246 32.2637,7.02246 C31.0241,7.02246 29.8481,6.94222 28.7358,6.78174 C27.6235,6.62126 26.6579,6.43587 25.8389,6.22559 L25.8389,1.56055 L26.5195,1.56055 C26.8073,1.67122 27.1476,1.79297 27.5405,1.92578 C27.9334,2.05859 28.3291,2.18034 28.7275,2.29102 C29.2035,2.41276 29.6683,2.51237 30.1221,2.58984 C30.5758,2.66732 31.0407,2.70605 31.5166,2.70605 C32.5016,2.70605 33.3234,2.60368 33.9819,2.39893 C34.6405,2.19417 35.1357,1.90365 35.4678,1.52734 C35.7998,1.13997 36.0322,0.683431 36.165,0.157715 C36.2979,-0.368001 36.3643,-1.0293 36.3643,-1.82617 L36.3643,-2.1748 C35.7113,-1.59928 34.9559,-1.13721 34.0981,-0.788574 C33.2404,-0.439941 32.3577,-0.265625 31.4502,-0.265625 C29.0374,-0.265625 27.1753,-1.05143 25.8638,-2.62305 C24.5522,-4.19466 23.8965,-6.58529 23.8965,-9.79492 C23.8965,-11.2559 24.0985,-12.5674 24.5024,-13.7295 C24.9064,-14.8916 25.4681,-15.8822 26.1875,-16.7012 C26.8737,-17.487 27.7038,-18.0929 28.6777,-18.519 C29.6517,-18.9451 30.6644,-19.1582 31.7158,-19.1582 C32.6676,-19.1582 33.5199,-19.0365 34.2725,-18.793 C35.0251,-18.5495 35.7113,-18.223 36.3311,-17.8135 L36.5469,-18.6436 L42.1748,-18.6436 L42.1748,-2.1416 M68.6367,-12.335 C68.6367,-10.0329 68.1331,-7.97152 67.126,-6.15088 C66.1188,-4.33024 64.846,-2.93294 63.3076,-1.95898 C62.0238,-1.12891 60.6265,-0.594889 59.1157,-0.356934 C57.605,-0.118978 55.9974,0 54.293,0 L46.5566,0 L46.5566,-24.7197 L54.2266,-24.7197 C55.9642,-24.7197 57.5911,-24.609 59.1074,-24.3877 C60.6237,-24.1663 62.0459,-23.6296 63.374,-22.7773 C65.001,-21.737 66.2848,-20.3341 67.2256,-18.5688 C68.1663,-16.8035 68.6367,-14.7256 68.6367,-12.335 M62.2617,-12.3848 C62.2617,-14.0117 61.9823,-15.4035 61.4233,-16.5601 C60.8644,-17.7166 60.0039,-18.6214 58.8418,-19.2744 C58.0007,-19.7393 57.118,-19.9938 56.1938,-20.0381 C55.2697,-20.0824 54.1657,-20.1045 52.8818,-20.1045 L52.7656,-20.1045 L52.7656,-4.63184 L52.8818,-4.63184 C54.2764,-4.63184 55.4523,-4.65674 56.4097,-4.70654 C57.367,-4.75635 58.2773,-5.05241 59.1406,-5.59473 C60.1589,-6.23665 60.9336,-7.12207 61.4648,-8.25098 C61.9961,-9.37988 62.2617,-10.7578 62.2617,-12.3848 M81.7705,0.498047 C78.251,0.498047 75.5532,-0.343099 73.6772,-2.02539 C71.8013,-3.70768 70.8633,-6.10384 70.8633,-9.21387 C70.8633,-12.2575 71.7376,-14.6868 73.4863,-16.502 C75.235,-18.3171 77.681,-19.2246 80.8242,-19.2246 C83.6797,-19.2246 85.8268,-18.4554 87.2656,-16.917 C88.7044,-15.3786 89.4238,-13.1761 89.4238,-10.3096 L89.4238,-8.21777 L76.6904,-8.21777 C76.7458,-7.35449 76.9284,-6.63232 77.2383,-6.05127 C77.5482,-5.47021 77.9577,-5.00814 78.4668,-4.66504 C78.9648,-4.32194 79.5459,-4.07568 80.21,-3.92627 C80.874,-3.77686 81.599,-3.70215 82.3848,-3.70215 C83.0599,-3.70215 83.724,-3.77686 84.377,-3.92627 C85.0299,-4.07568 85.6276,-4.27214 86.1699,-4.51562 C86.6458,-4.72591 87.0858,-4.9528 87.4897,-5.19629 C87.8937,-5.43978 88.223,-5.6556 88.4775,-5.84375 L89.0918,-5.84375 L89.0918,-1.0459 C88.6159,-0.857747 88.1815,-0.683431 87.7886,-0.522949 C87.3957,-0.362467 86.8561,-0.199219 86.1699,-0.0332031 C85.5391,0.132812 84.8888,0.262858 84.2192,0.356934 C83.5496,0.451009 82.7334,0.498047 81.7705,0.498047 M83.6963,-11.7207 C83.6631,-12.9492 83.3781,-13.8844 82.8413,-14.5264 C82.3045,-15.1683 81.4827,-15.4893 80.376,-15.4893 C79.2471,-15.4893 78.3644,-15.1517 77.728,-14.4766 C77.0916,-13.8014 76.7402,-12.8828 76.6738,-11.7207 L83.6963,-11.7207 M109.673,-18.6436 L102.982,0 L96.6406,0 L90,-18.6436 L96.1094,-18.6436 L99.9277,-6.30859 L103.696,-18.6436 L109.673,-18.6436 M123.215,0.481445 C119.507,0.481445 116.563,-0.63916 114.383,-2.88037 C112.202,-5.12158 111.112,-8.27311 111.112,-12.335 C111.112,-16.2529 112.205,-19.3768 114.391,-21.7065 C116.577,-24.0363 119.524,-25.2012 123.231,-25.2012 C124.216,-25.2012 125.102,-25.1458 125.888,-25.0352 C126.674,-24.9245 127.426,-24.7695 128.146,-24.5703 C128.71,-24.4043 129.324,-24.1774 129.988,-23.8896 C130.652,-23.6019 131.189,-23.3529 131.599,-23.1426 L131.599,-17.249 L130.968,-17.249 C130.669,-17.5146 130.293,-17.8328 129.839,-18.2036 C129.385,-18.5744 128.87,-18.9368 128.295,-19.291 C127.719,-19.6452 127.086,-19.9468 126.394,-20.1958 C125.702,-20.4448 124.98,-20.5693 124.228,-20.5693 C123.331,-20.5693 122.509,-20.4282 121.762,-20.146 C121.015,-19.8638 120.304,-19.374 119.629,-18.6768 C119.009,-18.0459 118.503,-17.1937 118.11,-16.1201 C117.717,-15.0465 117.521,-13.7793 117.521,-12.3184 C117.521,-10.7799 117.725,-9.48779 118.135,-8.44189 C118.544,-7.396 119.081,-6.55208 119.745,-5.91016 C120.387,-5.29036 121.104,-4.84212 121.895,-4.56543 C122.686,-4.28874 123.475,-4.15039 124.261,-4.15039 C125.08,-4.15039 125.86,-4.28597 126.602,-4.55713 C127.343,-4.82829 127.968,-5.12988 128.478,-5.46191 C129.031,-5.80501 129.518,-6.15365 129.938,-6.50781 C130.359,-6.86198 130.724,-7.17741 131.034,-7.4541 L131.599,-7.4541 L131.599,-1.64355 C131.145,-1.43327 130.619,-1.19255 130.021,-0.921387 C129.424,-0.650228 128.81,-0.420573 128.179,-0.232422 C127.404,0 126.679,0.177083 126.004,0.298828 C125.329,0.420573 124.399,0.481445 123.215,0.481445 M153.121,-9.31348 C153.121,-6.24772 152.283,-3.83219 150.606,-2.06689 C148.929,-0.301595 146.558,0.581055 143.492,0.581055 C140.449,0.581055 138.083,-0.301595 136.395,-2.06689 C134.707,-3.83219 133.863,-6.24772 133.863,-9.31348 C133.863,-12.4124 134.707,-14.839 136.395,-16.5933 C138.083,-18.3475 140.449,-19.2246 143.492,-19.2246 C146.547,-19.2246 148.915,-18.342 150.598,-16.5767 C152.28,-14.8114 153.121,-12.3903 153.121,-9.31348 M147.161,-9.28027 C147.161,-10.387 147.07,-11.3084 146.887,-12.0444 C146.705,-12.7804 146.453,-13.3698 146.132,-13.8125 C145.789,-14.2773 145.401,-14.6011 144.97,-14.7837 C144.538,-14.9663 144.046,-15.0576 143.492,-15.0576 C142.972,-15.0576 142.502,-14.9774 142.081,-14.8169 C141.66,-14.6564 141.273,-14.3493 140.919,-13.8955 C140.587,-13.4639 140.321,-12.8717 140.122,-12.1191 C139.923,-11.3665 139.823,-10.4202 139.823,-9.28027 C139.823,-8.1403 139.917,-7.21891 140.105,-6.51611 C140.294,-5.81331 140.537,-5.25163 140.836,-4.83105 C141.146,-4.39941 141.533,-4.08398 141.998,-3.88477 C142.463,-3.68555 142.978,-3.58594 143.542,-3.58594 C144.007,-3.58594 144.48,-3.68555 144.961,-3.88477 C145.443,-4.08398 145.827,-4.38281 146.115,-4.78125 C146.458,-5.25716 146.718,-5.82992 146.896,-6.49951 C147.073,-7.16911 147.161,-8.09603 147.161,-9.28027 M183.108,-20.0049 L172.732,-20.0049 L172.732,-15.3398 L182.278,-15.3398 L182.278,-10.625 L172.732,-10.625 L172.732,0 L166.557,0 L166.557,-24.7197 L183.108,-24.7197 L183.108,-20.0049 M196.501,-4.86426 L196.501,-8.74902 C195.516,-8.64941 194.719,-8.56364 194.11,-8.4917 C193.502,-8.41976 192.904,-8.27865 192.317,-8.06836 C191.808,-7.89128 191.413,-7.62288 191.13,-7.26318 C190.848,-6.90348 190.707,-6.4248 190.707,-5.82715 C190.707,-4.9528 190.942,-4.35238 191.413,-4.02588 C191.883,-3.69938 192.577,-3.53613 193.496,-3.53613 C194.005,-3.53613 194.525,-3.65234 195.057,-3.88477 C195.588,-4.11719 196.069,-4.44368 196.501,-4.86426 M196.501,-1.97559 C196.103,-1.64355 195.746,-1.34473 195.43,-1.0791 C195.115,-0.813477 194.691,-0.547852 194.16,-0.282227 C193.64,-0.0276693 193.134,0.166016 192.641,0.298828 C192.149,0.431641 191.46,0.498047 190.574,0.498047 C188.925,0.498047 187.556,-0.0553385 186.465,-1.16211 C185.375,-2.26888 184.83,-3.66341 184.83,-5.3457 C184.83,-6.72917 185.107,-7.84701 185.66,-8.69922 C186.214,-9.55143 187.01,-10.2266 188.051,-10.7246 C189.102,-11.2337 190.358,-11.5879 191.819,-11.7871 C193.28,-11.9863 194.852,-12.1413 196.534,-12.252 L196.534,-12.3516 C196.534,-13.3809 196.155,-14.092 195.397,-14.4849 C194.639,-14.8778 193.502,-15.0742 191.985,-15.0742 C191.299,-15.0742 190.497,-14.9497 189.578,-14.7007 C188.66,-14.4517 187.763,-14.1335 186.889,-13.7461 L186.391,-13.7461 L186.391,-18.2451 C186.966,-18.4111 187.896,-18.6076 189.18,-18.8345 C190.464,-19.0614 191.758,-19.1748 193.064,-19.1748 C196.274,-19.1748 198.612,-18.6408 200.079,-17.5728 C201.545,-16.5047 202.278,-14.875 202.278,-12.6836 L202.278,0 L196.501,0 L196.501,-1.97559 M218.742,-13.1484 L218.261,-13.1484 C218.039,-13.2259 217.718,-13.284 217.298,-13.3228 C216.877,-13.3615 216.412,-13.3809 215.903,-13.3809 C215.295,-13.3809 214.655,-13.2923 213.986,-13.1152 C213.316,-12.9382 212.666,-12.7279 212.035,-12.4844 L212.035,0 L206.225,0 L206.225,-18.6436 L212.035,-18.6436 L212.035,-15.9707 C212.301,-16.2142 212.669,-16.5213 213.139,-16.8921 C213.61,-17.2629 214.038,-17.5589 214.426,-17.7803 C214.846,-18.0348 215.336,-18.2534 215.895,-18.436 C216.454,-18.6187 216.982,-18.71 217.48,-18.71 C217.669,-18.71 217.879,-18.7044 218.111,-18.6934 C218.344,-18.6823 218.554,-18.6657 218.742,-18.6436 L218.742,-13.1484 M243.504,0 L243.504,-9.31348 C243.504,-10.2321 243.487,-11.0068 243.454,-11.6377 C243.421,-12.2686 243.321,-12.7832 243.155,-13.1816 C242.989,-13.5801 242.732,-13.8706 242.383,-14.0532 C242.035,-14.2358 241.545,-14.3271 240.914,-14.3271 C240.471,-14.3271 240.034,-14.2303 239.603,-14.0366 C239.171,-13.8429 238.701,-13.569 238.191,-13.2148 L238.191,0 L232.348,0 L232.348,-9.31348 C232.348,-10.221 232.328,-10.993 232.29,-11.6294 C232.251,-12.2658 232.148,-12.7832 231.982,-13.1816 C231.816,-13.5801 231.559,-13.8706 231.21,-14.0532 C230.862,-14.2358 230.378,-14.3271 229.758,-14.3271 C229.282,-14.3271 228.817,-14.2165 228.363,-13.9951 C227.91,-13.7738 227.467,-13.5137 227.035,-13.2148 L227.035,0 L221.225,0 L221.225,-18.6436 L227.035,-18.6436 L227.035,-16.585 C227.987,-17.3929 228.883,-18.0238 229.725,-18.4775 C230.566,-18.9313 231.512,-19.1582 232.563,-19.1582 C233.703,-19.1582 234.705,-18.887 235.568,-18.3447 C236.432,-17.8024 237.09,-16.9945 237.544,-15.9209 C238.662,-16.9613 239.716,-17.7609 240.707,-18.3198 C241.697,-18.8787 242.701,-19.1582 243.72,-19.1582 C244.583,-19.1582 245.358,-19.0199 246.044,-18.7432 C246.73,-18.4665 247.311,-18.0514 247.787,-17.498 C248.307,-16.9004 248.697,-16.1893 248.958,-15.3647 C249.218,-14.5402 249.348,-13.4639 249.348,-12.1357 L249.348,0 L243.504,0"/>
</g>

<g fill="none" stroke="#e7e7e7" stroke-opacity="1" stroke-dasharray="12.2835,6.14173" stroke-dashoffset="0" stroke-width="3.07087" stroke-linecap="square" stroke-linejoin="bevel" transform="matrix(0.31992,0,0,0.31992,2169.06,979.369)"
font-family="MS Shell Dlg 2" font-size="34.375" font-weight="400" font-style="normal" 
>
</g>

<g fill="none" stroke="#e7e7e7" stroke-opacity="1" stroke-dasharray="12.2835,6.14173" stroke-dashoffset="0" stroke-width="3.07087" stroke-linecap="square" stroke-linejoin="bevel" transform="matrix(0.999751,0,0,0.999751,23.6162,11.8081)"
font-family="MS Shell Dlg 2" font-size="34.375" font-weight="400" font-style="normal" 
>
</g>

<g fill="none" stroke="#e7e7e7" stroke-opacity="1" stroke-dasharray="12.2835,6.14173" stroke-dashoffset="0" stroke-width="3.07087" stroke-linecap="square" stroke-linejoin="bevel" transform="matrix(0.31992,0,0,0.31992,1635.79,840.064)"
font-family="MS Shell Dlg 2" font-size="34.375" font-weight="400" font-style="normal" 
>
</g>

<g fill="#e7e7e7" fill-opacity="1" stroke="none" transform="matrix(0.999751,0,0,0.999751,1635.79,840.064)"
font-family="MS Shell Dlg 2" font-size="34.375" font-weight="400" font-style="normal" 
>
<path vector-effect="non-scaling-stroke" fill-rule="nonzero" d="M17.332,-21.0176 L6.64062,0 L3.10449,0 L14.4268,-21.8145 L1.64355,-21.8145 L1.64355,-24.7197 L17.332,-24.7197 L17.332,-21.0176 M34.8047,0 L22.752,0 L22.752,-2.52344 L27.2344,-2.52344 L27.2344,-19.0918 L22.752,-19.0918 L22.752,-21.3496 C24.4453,-21.3496 25.6932,-21.5903 26.4956,-22.0718 C27.298,-22.5532 27.749,-23.4635 27.8486,-24.8027 L30.4219,-24.8027 L30.4219,-2.52344 L34.8047,-2.52344 L34.8047,0 M55.4482,-8.01855 C55.4482,-6.74577 55.238,-5.57259 54.8174,-4.49902 C54.3968,-3.42546 53.8324,-2.52897 53.124,-1.80957 C52.3825,-1.0459 51.5524,-0.467611 50.6338,-0.074707 C49.7152,0.318197 48.7025,0.514648 47.5957,0.514648 C46.4779,0.514648 45.4624,0.326497 44.5493,-0.0498047 C43.6362,-0.426107 42.8311,-0.985026 42.1338,-1.72656 C41.2816,-2.62305 40.6147,-3.82113 40.1333,-5.3208 C39.6519,-6.82048 39.4111,-8.66602 39.4111,-10.8574 C39.4111,-13.0046 39.6325,-14.9442 40.0752,-16.6763 C40.5179,-18.4084 41.1986,-19.9163 42.1172,-21.2002 C43.0137,-22.4508 44.1702,-23.4276 45.5869,-24.1304 C47.0036,-24.8332 48.6416,-25.1846 50.501,-25.1846 C51.0544,-25.1846 51.569,-25.1569 52.0449,-25.1016 C52.5208,-25.0462 52.9414,-24.9577 53.3066,-24.8359 L53.3066,-21.665 L53.1572,-21.665 C52.8584,-21.8311 52.4268,-21.9832 51.8623,-22.1216 C51.2979,-22.2599 50.6947,-22.3291 50.0527,-22.3291 C47.9941,-22.3291 46.3312,-21.6346 45.064,-20.2456 C43.7967,-18.8566 43.0469,-16.7952 42.8145,-14.0615 C43.6003,-14.6149 44.4082,-15.041 45.2383,-15.3398 C46.0684,-15.6387 46.9759,-15.7881 47.9609,-15.7881 C48.9238,-15.7881 49.7677,-15.6912 50.4927,-15.4976 C51.2176,-15.3039 51.973,-14.9137 52.7588,-14.3271 C53.6663,-13.641 54.3415,-12.7721 54.7842,-11.7207 C55.2269,-10.6693 55.4482,-9.43522 55.4482,-8.01855 M52.0781,-7.88574 C52.0781,-8.90397 51.9453,-9.75618 51.6797,-10.4424 C51.4141,-11.1286 50.9824,-11.7152 50.3848,-12.2021 C49.9531,-12.5563 49.4634,-12.7887 48.9155,-12.8994 C48.3677,-13.0101 47.806,-13.0654 47.2305,-13.0654 C46.4557,-13.0654 45.7031,-12.9492 44.9727,-12.7168 C44.2422,-12.4844 43.5228,-12.1468 42.8145,-11.7041 C42.7923,-11.4606 42.7757,-11.2254 42.7646,-10.9985 C42.7536,-10.7716 42.748,-10.4867 42.748,-10.1436 C42.748,-8.42806 42.9168,-7.0446 43.2544,-5.99316 C43.592,-4.94173 44.0098,-4.14486 44.5078,-3.60254 C44.9837,-3.08236 45.4735,-2.71712 45.9771,-2.50684 C46.4806,-2.29655 47.0257,-2.19141 47.6123,-2.19141 C48.9404,-2.19141 50.0168,-2.66732 50.8413,-3.61914 C51.6659,-4.57096 52.0781,-5.99316 52.0781,-7.88574 M64.1221,0 L60.1543,0 L60.1543,-4.73145 L64.1221,-4.73145 L64.1221,0 M84.1826,-12.3682 C84.1826,-7.93001 83.5379,-4.67334 82.2485,-2.59814 C80.9591,-0.522949 78.9697,0.514648 76.2803,0.514648 C73.5576,0.514648 71.5599,-0.542318 70.2871,-2.65625 C69.0143,-4.77018 68.3779,-7.99642 68.3779,-12.335 C68.3779,-16.7952 69.0226,-20.0575 70.312,-22.1216 C71.6014,-24.1857 73.5908,-25.2178 76.2803,-25.2178 C79.0029,-25.2178 81.0007,-24.1497 82.2734,-22.0137 C83.5462,-19.8776 84.1826,-16.6624 84.1826,-12.3682 M79.9326,-4.83105 C80.2536,-5.65007 80.4805,-6.6849 80.6133,-7.93555 C80.7461,-9.1862 80.8125,-10.6637 80.8125,-12.3682 C80.8125,-14.0615 80.7461,-15.5335 80.6133,-16.7842 C80.4805,-18.0348 80.248,-19.0752 79.916,-19.9053 C79.584,-20.7464 79.1274,-21.3856 78.5464,-21.8228 C77.9653,-22.2599 77.21,-22.4785 76.2803,-22.4785 C75.3617,-22.4785 74.6063,-22.2599 74.0142,-21.8228 C73.422,-21.3856 72.9544,-20.7354 72.6113,-19.8721 C72.2793,-19.0309 72.0524,-17.9684 71.9307,-16.6846 C71.8089,-15.4007 71.748,-13.9508 71.748,-12.335 C71.748,-10.6084 71.8006,-9.16406 71.9058,-8.00195 C72.0109,-6.83984 72.2406,-5.79948 72.5947,-4.88086 C72.9157,-4.02865 73.3722,-3.37288 73.9644,-2.91357 C74.5565,-2.45426 75.3285,-2.22461 76.2803,-2.22461 C77.1989,-2.22461 77.9543,-2.4432 78.5464,-2.88037 C79.1385,-3.31755 79.6006,-3.96777 79.9326,-4.83105 M102.784,-7.86914 C102.784,-6.67383 102.593,-5.56706 102.211,-4.54883 C101.83,-3.5306 101.296,-2.65072 100.609,-1.90918 C99.9121,-1.15658 99.0461,-0.564453 98.0112,-0.132812 C96.9764,0.298828 95.8171,0.514648 94.5332,0.514648 C93.349,0.514648 92.1841,0.384603 91.0386,0.124512 C89.8931,-0.135579 88.8997,-0.475911 88.0586,-0.896484 L88.0586,-4.39941 L88.291,-4.39941 C88.5456,-4.21126 88.9108,-3.99821 89.3867,-3.76025 C89.8626,-3.5223 90.3883,-3.29818 90.9639,-3.08789 C91.6169,-2.85547 92.2145,-2.67562 92.7568,-2.54834 C93.2992,-2.42106 93.9079,-2.35742 94.583,-2.35742 C95.2471,-2.35742 95.8945,-2.4764 96.5254,-2.71436 C97.1562,-2.95231 97.6986,-3.33691 98.1523,-3.86816 C98.5618,-4.35514 98.8745,-4.92513 99.0903,-5.57812 C99.3062,-6.23112 99.4141,-7.00033 99.4141,-7.88574 C99.4141,-8.76009 99.2951,-9.47949 99.0571,-10.0439 C98.8192,-10.6084 98.4733,-11.0732 98.0195,-11.4385 C97.5436,-11.859 96.9598,-12.1551 96.2681,-12.3267 C95.5763,-12.4982 94.8044,-12.584 93.9521,-12.584 C93.0557,-12.584 92.1536,-12.5148 91.2461,-12.3765 C90.3385,-12.2381 89.6136,-12.1081 89.0713,-11.9863 L89.0713,-24.7197 L102.635,-24.7197 L102.635,-21.8145 L92.2754,-21.8145 L92.2754,-15.2402 C92.6738,-15.2845 93.0667,-15.3177 93.4541,-15.3398 C93.8415,-15.362 94.1956,-15.373 94.5166,-15.373 C95.7783,-15.373 96.8464,-15.2679 97.7207,-15.0576 C98.5951,-14.8473 99.4362,-14.4378 100.244,-13.8291 C101.063,-13.2093 101.691,-12.4346 102.128,-11.5049 C102.566,-10.5752 102.784,-9.36328 102.784,-7.86914 M122.714,-8.5 L119.775,-8.5 L119.775,0 L116.588,0 L116.588,-8.5 L105.664,-8.5 L105.664,-11.9863 L116.721,-24.7197 L119.775,-24.7197 L119.775,-11.1562 L122.714,-11.1562 L122.714,-8.5 M116.588,-11.1562 L116.588,-20.8184 L108.254,-11.1562 L116.588,-11.1562 M139.805,0 L127.752,0 L127.752,-2.52344 L132.234,-2.52344 L132.234,-19.0918 L127.752,-19.0918 L127.752,-21.3496 C129.445,-21.3496 130.693,-21.5903 131.496,-22.0718 C132.298,-22.5532 132.749,-23.4635 132.849,-24.8027 L135.422,-24.8027 L135.422,-2.52344 L139.805,-2.52344 L139.805,0"/>
</g>

<g fill="none" stroke="#e7e7e7" stroke-opacity="1" stroke-dasharray="12.2835,6.14173" stroke-dashoffset="0" stroke-width="3.07087" stroke-linecap="square" stroke-linejoin="bevel" transform="matrix(0.31992,0,0,0.31992,1635.79,840.064)"
font-family="MS Shell Dlg 2" font-size="34.375" font-weight="400" font-style="normal" 
>
</g>

<g fill="none" stroke="#e7e7e7" stroke-opacity="1" stroke-dasharray="12.2835,6.14173" stroke-dashoffset="0" stroke-width="3.07087" stroke-linecap="square" stroke-linejoin="bevel" transform="matrix(0.999751,0,0,0.999751,23.6162,11.8081)"
font-family="MS Shell Dlg 2" font-size="34.375" font-weight="400" font-style="normal" 
>
</g>

<g fill="none" stroke="#e7e7e7" stroke-opacity="1" stroke-dasharray="12.2835,6.14173" stroke-dashoffset="0" stroke-width="3.07087" stroke-linecap="square" stroke-linejoin="bevel" transform="matrix(0.31992,0,0,0.31992,1498.62,1146.81)"
font-family="MS Shell Dlg 2" font-size="34.375" font-weight="400" font-style="normal" 
>
</g>

<g fill="#e7e7e7" fill-opacity="1" stroke="none" transform="matrix(0.999751,0,0,0.999751,1498.62,1146.81)"
font-family="MS Shell Dlg 2" font-size="34.375" font-weight="400" font-style="normal" 
>
<path vector-effect="non-scaling-stroke" fill-rule="nonzero" d="M8.4834,-22.3623 C7.88574,-22.3623 7.28809,-22.2904 6.69043,-22.1465 C6.09277,-22.0026 5.50618,-21.8145 4.93066,-21.582 C4.39941,-21.3607 3.93734,-21.1283 3.54443,-20.8848 C3.15153,-20.6413 2.80013,-20.4144 2.49023,-20.2041 L2.29102,-20.2041 L2.29102,-23.707 C3.01042,-24.0944 3.98714,-24.4458 5.22119,-24.7612 C6.45524,-25.0767 7.63118,-25.2344 8.74902,-25.2344 C9.86686,-25.2344 10.8436,-25.1209 11.6792,-24.894 C12.5148,-24.6672 13.2702,-24.3158 13.9453,-23.8398 C14.6758,-23.3086 15.2264,-22.6667 15.5972,-21.9141 C15.9679,-21.1615 16.1533,-20.2816 16.1533,-19.2744 C16.1533,-17.9131 15.7051,-16.7178 14.8086,-15.6885 C13.9121,-14.6592 12.8385,-14.0062 11.5879,-13.7295 L11.5879,-13.4971 C12.1081,-13.3975 12.6642,-13.2259 13.2563,-12.9824 C13.8485,-12.7389 14.3991,-12.3792 14.9082,-11.9033 C15.4173,-11.4274 15.8324,-10.8159 16.1533,-10.0688 C16.4743,-9.32178 16.6348,-8.41146 16.6348,-7.33789 C16.6348,-6.22005 16.4438,-5.19352 16.062,-4.2583 C15.6802,-3.32308 15.1406,-2.49577 14.4434,-1.77637 C13.724,-1.02376 12.8551,-0.453776 11.8369,-0.0664062 C10.8187,0.320964 9.66211,0.514648 8.36719,0.514648 C7.1276,0.514648 5.89909,0.365234 4.68164,0.0664062 C3.46419,-0.232422 2.44043,-0.592122 1.61035,-1.0127 L1.61035,-4.51562 L1.84277,-4.51562 C2.54004,-4.00651 3.47526,-3.51953 4.64844,-3.05469 C5.82161,-2.58984 6.99479,-2.35742 8.16797,-2.35742 C8.8431,-2.35742 9.521,-2.46533 10.2017,-2.68115 C10.8823,-2.89697 11.4495,-3.24837 11.9033,-3.73535 C12.346,-4.22233 12.6836,-4.75911 12.916,-5.3457 C13.1484,-5.93229 13.2646,-6.67383 13.2646,-7.57031 C13.2646,-8.4668 13.1346,-9.2028 12.8745,-9.77832 C12.6144,-10.3538 12.252,-10.8076 11.7871,-11.1396 C11.3223,-11.4717 10.7716,-11.7013 10.1353,-11.8286 C9.49886,-11.9559 8.8099,-12.0195 8.06836,-12.0195 L6.65723,-12.0195 L6.65723,-14.7754 L7.75293,-14.7754 C9.24707,-14.7754 10.4618,-15.1296 11.397,-15.8379 C12.3322,-16.5462 12.7998,-17.5755 12.7998,-18.9258 C12.7998,-19.5456 12.6781,-20.0796 12.4346,-20.5278 C12.1911,-20.9761 11.8812,-21.333 11.5049,-21.5986 C11.0843,-21.8864 10.6195,-22.0856 10.1104,-22.1963 C9.60124,-22.307 9.05892,-22.3623 8.4834,-22.3623 M34.8047,0 L22.752,0 L22.752,-2.52344 L27.2344,-2.52344 L27.2344,-19.0918 L22.752,-19.0918 L22.752,-21.3496 C24.4453,-21.3496 25.6932,-21.5903 26.4956,-22.0718 C27.298,-22.5532 27.749,-23.4635 27.8486,-24.8027 L30.4219,-24.8027 L30.4219,-2.52344 L34.8047,-2.52344 L34.8047,0 M55.1826,-12.3682 C55.1826,-7.93001 54.5379,-4.67334 53.2485,-2.59814 C51.9591,-0.522949 49.9697,0.514648 47.2803,0.514648 C44.5576,0.514648 42.5599,-0.542318 41.2871,-2.65625 C40.0143,-4.77018 39.3779,-7.99642 39.3779,-12.335 C39.3779,-16.7952 40.0226,-20.0575 41.312,-22.1216 C42.6014,-24.1857 44.5908,-25.2178 47.2803,-25.2178 C50.0029,-25.2178 52.0007,-24.1497 53.2734,-22.0137 C54.5462,-19.8776 55.1826,-16.6624 55.1826,-12.3682 M50.9326,-4.83105 C51.2536,-5.65007 51.4805,-6.6849 51.6133,-7.93555 C51.7461,-9.1862 51.8125,-10.6637 51.8125,-12.3682 C51.8125,-14.0615 51.7461,-15.5335 51.6133,-16.7842 C51.4805,-18.0348 51.248,-19.0752 50.916,-19.9053 C50.584,-20.7464 50.1274,-21.3856 49.5464,-21.8228 C48.9653,-22.2599 48.21,-22.4785 47.2803,-22.4785 C46.3617,-22.4785 45.6063,-22.2599 45.0142,-21.8228 C44.422,-21.3856 43.9544,-20.7354 43.6113,-19.8721 C43.2793,-19.0309 43.0524,-17.9684 42.9307,-16.6846 C42.8089,-15.4007 42.748,-13.9508 42.748,-12.335 C42.748,-10.6084 42.8006,-9.16406 42.9058,-8.00195 C43.0109,-6.83984 43.2406,-5.79948 43.5947,-4.88086 C43.9157,-4.02865 44.3722,-3.37288 44.9644,-2.91357 C45.5565,-2.45426 46.3285,-2.22461 47.2803,-2.22461 C48.1989,-2.22461 48.9543,-2.4432 49.5464,-2.88037 C50.1385,-3.31755 50.6006,-3.96777 50.9326,-4.83105 M64.1221,0 L60.1543,0 L60.1543,-4.73145 L64.1221,-4.73145 L64.1221,0 M83.7842,-7.86914 C83.7842,-6.67383 83.5933,-5.56706 83.2114,-4.54883 C82.8296,-3.5306 82.2956,-2.65072 81.6094,-1.90918 C80.9121,-1.15658 80.0461,-0.564453 79.0112,-0.132812 C77.9764,0.298828 76.8171,0.514648 75.5332,0.514648 C74.349,0.514648 73.1841,0.384603 72.0386,0.124512 C70.8931,-0.135579 69.8997,-0.475911 69.0586,-0.896484 L69.0586,-4.39941 L69.291,-4.39941 C69.5456,-4.21126 69.9108,-3.99821 70.3867,-3.76025 C70.8626,-3.5223 71.3883,-3.29818 71.9639,-3.08789 C72.6169,-2.85547 73.2145,-2.67562 73.7568,-2.54834 C74.2992,-2.42106 74.9079,-2.35742 75.583,-2.35742 C76.2471,-2.35742 76.8945,-2.4764 77.5254,-2.71436 C78.1562,-2.95231 78.6986,-3.33691 79.1523,-3.86816 C79.5618,-4.35514 79.8745,-4.92513 80.0903,-5.57812 C80.3062,-6.23112 80.4141,-7.00033 80.4141,-7.88574 C80.4141,-8.76009 80.2951,-9.47949 80.0571,-10.0439 C79.8192,-10.6084 79.4733,-11.0732 79.0195,-11.4385 C78.5436,-11.859 77.9598,-12.1551 77.2681,-12.3267 C76.5763,-12.4982 75.8044,-12.584 74.9521,-12.584 C74.0557,-12.584 73.1536,-12.5148 72.2461,-12.3765 C71.3385,-12.2381 70.6136,-12.1081 70.0713,-11.9863 L70.0713,-24.7197 L83.6348,-24.7197 L83.6348,-21.8145 L73.2754,-21.8145 L73.2754,-15.2402 C73.6738,-15.2845 74.0667,-15.3177 74.4541,-15.3398 C74.8415,-15.362 75.1956,-15.373 75.5166,-15.373 C76.7783,-15.373 77.8464,-15.2679 78.7207,-15.0576 C79.5951,-14.8473 80.4362,-14.4378 81.2441,-13.8291 C82.0632,-13.2093 82.6912,-12.4346 83.1284,-11.5049 C83.5656,-10.5752 83.7842,-9.36328 83.7842,-7.86914 M103.714,-8.5 L100.775,-8.5 L100.775,0 L97.5879,0 L97.5879,-8.5 L86.6641,-8.5 L86.6641,-11.9863 L97.7207,-24.7197 L100.775,-24.7197 L100.775,-11.1562 L103.714,-11.1562 L103.714,-8.5 M97.5879,-11.1562 L97.5879,-20.8184 L89.2539,-11.1562 L97.5879,-11.1562 M118.812,-14.5596 C118.812,-16.2419 118.658,-17.6115 118.348,-18.6685 C118.038,-19.7254 117.612,-20.5417 117.069,-21.1172 C116.582,-21.6484 116.09,-22.0137 115.592,-22.2129 C115.094,-22.4121 114.546,-22.5117 113.948,-22.5117 C112.587,-22.5117 111.502,-22.0247 110.694,-21.0508 C109.886,-20.0768 109.482,-18.6657 109.482,-16.8174 C109.482,-15.777 109.615,-14.9193 109.881,-14.2441 C110.146,-13.569 110.578,-12.988 111.176,-12.501 C111.596,-12.1579 112.072,-11.9282 112.604,-11.812 C113.135,-11.6958 113.705,-11.6377 114.313,-11.6377 C115.022,-11.6377 115.785,-11.7622 116.604,-12.0112 C117.424,-12.2603 118.137,-12.5895 118.746,-12.999 C118.757,-13.165 118.771,-13.3836 118.788,-13.6548 C118.804,-13.9259 118.812,-14.2275 118.812,-14.5596 M106.112,-16.6846 C106.112,-17.9574 106.32,-19.1195 106.735,-20.1709 C107.15,-21.2223 107.717,-22.1299 108.437,-22.8936 C109.123,-23.624 109.961,-24.194 110.952,-24.6035 C111.942,-25.013 112.947,-25.2178 113.965,-25.2178 C115.105,-25.2178 116.137,-25.0269 117.061,-24.645 C117.985,-24.2632 118.785,-23.7126 119.46,-22.9932 C120.312,-22.0856 120.973,-20.8958 121.444,-19.4238 C121.914,-17.9518 122.149,-16.0924 122.149,-13.8457 C122.149,-11.7982 121.92,-9.85856 121.46,-8.02686 C121.001,-6.19515 120.323,-4.67611 119.427,-3.46973 C118.475,-2.18587 117.332,-1.20638 115.999,-0.53125 C114.665,0.14388 113.019,0.481445 111.06,0.481445 C110.617,0.481445 110.146,0.456543 109.648,0.406738 C109.15,0.356934 108.686,0.265625 108.254,0.132812 L108.254,-3.03809 L108.42,-3.03809 C108.697,-2.88314 109.128,-2.73372 109.715,-2.58984 C110.301,-2.44596 110.899,-2.37402 111.508,-2.37402 C113.677,-2.37402 115.382,-3.08789 116.621,-4.51562 C117.861,-5.94336 118.563,-7.98535 118.729,-10.6416 C117.844,-10.0439 117,-9.60677 116.198,-9.33008 C115.395,-9.05339 114.524,-8.91504 113.583,-8.91504 C112.664,-8.91504 111.829,-9.01465 111.076,-9.21387 C110.324,-9.41309 109.565,-9.80046 108.802,-10.376 C107.916,-11.0511 107.247,-11.9061 106.793,-12.9409 C106.339,-13.9757 106.112,-15.2236 106.112,-16.6846 M141.448,-8.01855 C141.448,-6.74577 141.238,-5.57259 140.817,-4.49902 C140.397,-3.42546 139.832,-2.52897 139.124,-1.80957 C138.382,-1.0459 137.552,-0.467611 136.634,-0.074707 C135.715,0.318197 134.702,0.514648 133.596,0.514648 C132.478,0.514648 131.462,0.326497 130.549,-0.0498047 C129.636,-0.426107 128.831,-0.985026 128.134,-1.72656 C127.282,-2.62305 126.615,-3.82113 126.133,-5.3208 C125.652,-6.82048 125.411,-8.66602 125.411,-10.8574 C125.411,-13.0046 125.632,-14.9442 126.075,-16.6763 C126.518,-18.4084 127.199,-19.9163 128.117,-21.2002 C129.014,-22.4508 130.17,-23.4276 131.587,-24.1304 C133.004,-24.8332 134.642,-25.1846 136.501,-25.1846 C137.054,-25.1846 137.569,-25.1569 138.045,-25.1016 C138.521,-25.0462 138.941,-24.9577 139.307,-24.8359 L139.307,-21.665 L139.157,-21.665 C138.858,-21.8311 138.427,-21.9832 137.862,-22.1216 C137.298,-22.2599 136.695,-22.3291 136.053,-22.3291 C133.994,-22.3291 132.331,-21.6346 131.064,-20.2456 C129.797,-18.8566 129.047,-16.7952 128.814,-14.0615 C129.6,-14.6149 130.408,-15.041 131.238,-15.3398 C132.068,-15.6387 132.976,-15.7881 133.961,-15.7881 C134.924,-15.7881 135.768,-15.6912 136.493,-15.4976 C137.218,-15.3039 137.973,-14.9137 138.759,-14.3271 C139.666,-13.641 140.341,-12.7721 140.784,-11.7207 C141.227,-10.6693 141.448,-9.43522 141.448,-8.01855 M138.078,-7.88574 C138.078,-8.90397 137.945,-9.75618 137.68,-10.4424 C137.414,-11.1286 136.982,-11.7152 136.385,-12.2021 C135.953,-12.5563 135.463,-12.7887 134.916,-12.8994 C134.368,-13.0101 133.806,-13.0654 133.23,-13.0654 C132.456,-13.0654 131.703,-12.9492 130.973,-12.7168 C130.242,-12.4844 129.523,-12.1468 128.814,-11.7041 C128.792,-11.4606 128.776,-11.2254 128.765,-10.9985 C128.754,-10.7716 128.748,-10.4867 128.748,-10.1436 C128.748,-8.42806 128.917,-7.0446 129.254,-5.99316 C129.592,-4.94173 130.01,-4.14486 130.508,-3.60254 C130.984,-3.08236 131.473,-2.71712 131.977,-2.50684 C132.481,-2.29655 133.026,-2.19141 133.612,-2.19141 C134.94,-2.19141 136.017,-2.66732 136.841,-3.61914 C137.666,-4.57096 138.078,-5.99316 138.078,-7.88574 "/>
</g>

<g fill="none" stroke="#e7e7e7" stroke-opacity="1" stroke-dasharray="12.2835,6.14173" stroke-dashoffset="0" stroke-width="3.07087" stroke-linecap="square" stroke-linejoin="bevel" transform="matrix(0.31992,0,0,0.31992,1498.62,1146.81)"
font-family="MS Shell Dlg 2" font-size="34.375" font-weight="400" font-style="normal" 
>
</g>

<g fill="none" stroke="#e7e7e7" stroke-opacity="1" stroke-dasharray="12.2835,6.14173" stroke-dashoffset="0" stroke-width="3.07087" stroke-linecap="square" stroke-linejoin="bevel" transform="matrix(0.999751,0,0,0.999751,23.6162,11.8081)"
font-family="MS Shell Dlg 2" font-size="34.375" font-weight="400" font-style="normal" 
>
</g>

<g fill="none" stroke="#000000" stroke-opacity="1" stroke-width="1" stroke-linecap="square" stroke-linejoin="bevel" transform="matrix(11.8081,0,0,11.8081,23.6162,11.8081)"
font-family="MS Shell Dlg 2" font-size="34.375" font-weight="400" font-style="normal" 
>
</g>

<g fill="none" stroke="#000000" stroke-opacity="1" stroke-width="1" stroke-linecap="square" stroke-linejoin="bevel" transform="matrix(11.8081,0,0,11.8081,23.6162,11.8081)"
font-family="MS Shell Dlg 2" font-size="34.375" font-weight="400" font-style="normal" 
>
</g>

<g fill="none" stroke="#000000" stroke-opacity="1" stroke-width="1" stroke-linecap="square" stroke-linejoin="bevel" transform="matrix(11.8081,0,0,11.8081,23.6162,11.8081)"
font-family="MS Shell Dlg 2" font-size="34.375" font-weight="400" font-style="normal" 
>
</g>

<g fill="none" stroke="#000000" stroke-opacity="1" stroke-width="1" stroke-linecap="square" stroke-linejoin="bevel" transform="matrix(1,0,0,1,0,0)"
font-family="MS Shell Dlg 2" font-size="34.375" font-weight="400" font-style="normal" 
>
</g>

<g fill="none" stroke="#000000" stroke-opacity="1" stroke-width="1" stroke-linecap="square" stroke-linejoin="bevel" transform="matrix(11.8081,0,0,11.8081,23.6162,11.8081)"
font-family="MS Shell Dlg 2" font-size="34.375" font-weight="400" font-style="normal" 
>
</g>

<g fill="none" stroke="#000000" stroke-opacity="1" stroke-width="1" stroke-linecap="square" stroke-linejoin="bevel" transform="matrix(11.8081,0,0,11.8081,23.6162,11.8081)"
font-family="MS Shell Dlg 2" font-size="34.375" font-weight="400" font-style="normal" 
>
</g>

<g fill="none" stroke="#000000" stroke-opacity="1" stroke-width="1" stroke-linecap="square" stroke-linejoin="bevel" transform="matrix(11.8081,0,0,11.8081,0,0)"
font-family="MS Shell Dlg 2" font-size="34.375" font-weight="400" font-style="normal" 
>
</g>

<g fill="none" stroke="#000000" stroke-opacity="1" stroke-width="1" stroke-linecap="square" stroke-linejoin="bevel" transform="matrix(11.8081,0,0,11.8081,0,0)"
font-family="MS Shell Dlg 2" font-size="34.375" font-weight="400" font-style="normal" 
>
</g>

<g fill="none" stroke="#000000" stroke-opacity="1" stroke-width="1" stroke-linecap="square" stroke-linejoin="bevel" transform="matrix(1,0,0,1,0,0)"
font-family="MS Shell Dlg 2" font-size="34.375" font-weight="400" font-style="normal" 
>
</g>
</g>
</svg>
